<svg width="192" height="333" viewBox="0 0 192 333" fill="none" xmlns="http://www.w3.org/2000/svg">
<path d="M191.127 25.5674C190.574 29.7178 190.02 34.1449 189.467 38.8486C188.913 43.5524 188.36 48.2562 187.807 52.96C187.53 57.6637 186.977 62.3675 186.146 67.0713C185.593 71.7751 184.901 75.9255 184.071 79.5225C182.688 85.333 180.198 91.2819 176.601 97.3691C173.28 103.456 170.513 109.544 168.3 115.631C166.086 124.762 163.596 134.308 160.829 144.269C158.339 154.229 155.849 164.19 153.358 174.151C152.528 177.195 151.422 180.377 150.038 183.697C148.931 186.741 148.101 189.785 147.548 192.828C147.271 195.872 147.133 198.915 147.133 201.959C147.41 204.726 147.271 207.631 146.718 210.675C144.504 219.806 141.876 228.798 138.832 237.652C136.065 246.507 133.852 255.361 132.191 264.215C131.085 269.749 130.116 275.559 129.286 281.646C128.733 287.457 129.286 293.129 130.946 298.663C131.776 301.983 133.437 304.612 135.927 306.549C138.694 308.209 140.769 310.976 142.152 314.85C141.599 316.233 141.046 317.34 140.492 318.17C139.939 318.723 139.385 319.692 138.832 321.075C133.021 322.735 128.041 322.874 123.891 321.49C120.017 320.383 115.451 319.415 110.194 318.585C107.151 318.308 103.692 318.308 99.8184 318.585C95.9447 318.585 91.9326 318.585 87.7822 318.585C84.7386 318.862 80.7266 319 75.7461 319C71.0423 318.723 67.307 318.862 64.54 319.415C60.3896 319.968 55.9626 320.522 51.2588 321.075C46.8317 321.629 42.958 322.182 39.6377 322.735C36.0407 323.565 32.0286 324.949 27.6016 326.886C23.4512 328.823 19.4391 330.206 15.5654 331.036C11.6917 332.143 8.37142 332.143 5.60449 331.036C2.83757 330.206 1.03906 327.301 0.208984 322.32C6.57292 317.617 13.7669 313.189 21.791 309.039C30.0918 304.612 37.1475 299.216 42.958 292.853C44.8949 290.086 47.2467 286.35 50.0137 281.646C53.0573 276.666 55.2708 272.377 56.6543 268.78C57.2077 266.567 57.346 264.353 57.0693 262.14C57.0693 259.926 57.346 257.713 57.8994 255.499C58.4528 252.455 59.2829 249.412 60.3896 246.368C61.7731 243.048 62.8799 239.589 63.71 235.992C65.6468 226.861 67.722 218.561 69.9355 211.09C72.4258 203.342 75.3311 195.457 78.6514 187.433C79.2048 185.772 79.8965 184.251 80.7266 182.867C81.5566 181.207 82.11 179.962 82.3867 179.132C82.6634 177.195 82.3867 175.396 81.5566 173.736C81.0033 172.076 80.7266 170.139 80.7266 167.926C81.0033 162.115 82.6634 156.028 85.707 149.664C88.7507 143.3 90.9642 136.66 92.3477 129.742C93.1777 126.145 93.5928 122.687 93.5928 119.366C93.8695 116.046 94.4229 112.726 95.2529 109.405C96.6364 103.871 98.0199 98.891 99.4033 94.4639C101.063 89.7601 102.585 85.0563 103.969 80.3525C96.498 82.0127 89.5807 85.333 83.2168 90.3135C77.1296 95.0173 70.904 99.4443 64.54 103.595C63.71 104.425 63.0182 105.393 62.4648 106.5C62.1882 107.33 61.6348 108.16 60.8047 108.99C59.1445 110.097 57.0693 111.065 54.5791 111.896C52.0889 112.449 49.5986 112.864 47.1084 113.141C44.6182 113.141 42.4046 112.726 40.4678 111.896C38.5309 110.789 37.2858 109.129 36.7324 106.915C35.9023 103.595 36.3174 100.689 37.9775 98.1992C39.9144 95.709 42.2663 93.6338 45.0332 91.9736C47.8001 90.0368 50.7054 88.2383 53.749 86.5781C56.7926 84.918 59.1445 83.2578 60.8047 81.5977C68.2754 65.8262 79.8965 53.79 95.668 45.4893C96.498 42.1689 98.0199 39.402 100.233 37.1885C102.447 34.6982 104.937 32.4847 107.704 30.5479C110.748 28.611 113.653 26.6742 116.42 24.7373C119.464 22.8005 121.954 20.7253 123.891 18.5117C126.104 16.2982 127.903 13.6696 129.286 10.626C130.67 7.58236 132.468 5.36882 134.682 3.98535C138.555 1.77181 142.844 1.08008 147.548 1.91016C152.252 2.46354 156.402 3.84701 159.999 6.06055C160.552 7.7207 160.967 9.38086 161.244 11.041C161.798 12.7012 162.766 14.0846 164.149 15.1914C165.533 16.0215 167.608 16.4365 170.375 16.4365C173.142 16.1598 175.217 16.2982 176.601 16.8516C179.644 17.9583 182.273 19.4801 184.486 21.417C186.7 23.0771 188.913 24.4606 191.127 25.5674Z" fill="url(#paint0_linear_1675_3575)"/>
<defs>
<linearGradient id="paint0_linear_1675_3575" x1="109" y1="-104" x2="109" y2="205" gradientUnits="userSpaceOnUse">
<stop stop-color="#FF1975"/>
<stop offset="1" stop-color="#A98CCE"/>
</linearGradient>
</defs>
</svg>
