<svg width="26" height="26" viewBox="0 0 26 26" fill="none" xmlns="http://www.w3.org/2000/svg">
<path d="M18.1352 1.24561L13.7377 7.82249H15.917L20.8205 1.24561H18.1352Z" fill="#428BC1"/>
<path d="M15.9169 1.24561L11.5582 7.82249H13.7375L18.1351 1.24561H15.9169Z" fill="#E8E8E8"/>
<path d="M13.7376 1.24561L9.37891 7.82249H11.5582L15.9169 1.24561H13.7376Z" fill="#ED4C5C"/>
<path d="M12.6479 24.5956C17.0754 24.5956 20.6647 21.0064 20.6647 16.5788C20.6647 12.1513 17.0754 8.56201 12.6479 8.56201C8.22034 8.56201 4.6311 12.1513 4.6311 16.5788C4.6311 21.0064 8.22034 24.5956 12.6479 24.5956Z" fill="#FFCE31"/>
<path d="M8.63956 6.34375C8.44497 6.34375 8.28931 6.49942 8.28931 6.694V9.96298C8.28931 10.1576 8.44497 10.3132 8.63956 10.3132H16.6563C16.8509 10.3132 17.0066 10.1576 17.0066 9.96298V6.694C17.0066 6.49942 16.8509 6.34375 16.6563 6.34375H8.63956ZM16.3061 8.91224C16.3061 9.10682 16.1504 9.26249 15.9559 9.26249H9.37897C9.18439 9.26249 9.02872 9.10682 9.02872 8.91224V7.43341C9.02872 7.23883 9.18439 7.08316 9.37897 7.08316H15.9559C16.1504 7.08316 16.3061 7.23883 16.3061 7.43341V8.91224Z" fill="#FFCE31"/>
<path opacity="0.5" d="M5.75989 17.5125C5.75989 13.1539 9.10671 9.61246 13.3875 9.30112C13.1929 9.30112 12.9594 9.26221 12.7649 9.26221C8.67863 9.26221 5.37073 12.5701 5.37073 16.6953C5.37073 17.9017 5.68206 19.0692 6.18797 20.081C5.91556 19.2637 5.75989 18.4076 5.75989 17.5125Z" fill="#89664C"/>
<path opacity="0.33" d="M15.7224 22.7662C19.3416 20.3534 20.4313 15.6445 18.3298 11.9863L18.6801 12.4533C20.9372 15.8001 20.0032 20.3534 16.6175 22.6494C15.6057 23.3499 14.4771 23.7391 13.3485 23.8559C14.2047 23.6224 14.983 23.2721 15.7224 22.7662Z" fill="white"/>
<path d="M9.37894 7.82249H11.5583L7.1607 1.24561H4.47546L9.37894 7.82249Z" fill="#ED4C5C"/>
<path d="M11.5583 7.82249H13.7376L9.37901 1.24561H7.16077L11.5583 7.82249Z" fill="#E8E8E8"/>
<path opacity="0.5" d="M12.9981 2.33545L11.9084 3.96994L14.4769 7.82267H15.9168L16.306 7.27784L12.9981 2.33545Z" fill="#3E4347"/>
<path d="M13.7376 7.82249H15.9169L11.5582 1.24561H9.37891L13.7376 7.82249Z" fill="#428BC1"/>
<path opacity="0.5" d="M10.6244 14.1658V14.555C11.0136 14.555 11.3638 14.4771 11.7141 14.3215V13.7766C11.4027 14.0101 11.0525 14.1269 10.6244 14.1658ZM13.1929 11.6362H13.5431V20.0422H13.1929V11.6362ZM14.6717 20.3924V21.4821H10.6244V21.8713H15.022V20.3924H14.6717Z" fill="#89664C"/>
<path opacity="0.33" d="M13.5431 20.0423H14.6328V20.3926H13.5431V20.0423ZM12.1032 11.6364H13.1929V11.2861H11.7141C11.7141 12.1034 11.0525 12.765 10.2352 12.765V14.2049C10.352 14.2049 10.4687 14.2049 10.5855 14.166V13.0763C11.4416 13.1152 12.1032 12.4536 12.1032 11.6364ZM12.1032 20.3926V14.166C11.9865 14.2438 11.8697 14.2827 11.753 14.3605V20.0423H10.2741V21.4822H10.6244V20.3926H12.1032Z" fill="white"/>
</svg>
