<svg width="255" height="618" viewBox="0 0 255 618" fill="none" xmlns="http://www.w3.org/2000/svg">
<path d="M145.773 377.346C147.157 378.176 148.264 379.283 149.094 380.666C149.924 381.773 151.031 382.603 152.414 383.156C154.351 384.263 156.426 385.231 158.64 386.062C161.13 386.892 163.482 387.86 165.695 388.967C167.909 390.074 170.122 391.319 172.336 392.702C174.549 394.086 176.486 395.054 178.146 395.607C182.85 396.991 187.831 396.991 193.088 395.607C198.345 393.947 202.634 392.287 205.954 390.627C208.444 389.52 210.935 389.797 213.425 391.457C216.192 392.84 219.65 394.362 223.801 396.022C225.184 399.066 225.184 402.248 223.801 405.568C222.417 408.889 220.896 411.379 219.235 413.039C218.682 413.869 217.299 414.976 215.085 416.359C213.148 417.743 210.935 419.126 208.444 420.51C205.954 421.617 203.464 422.723 200.974 423.83C198.483 424.937 196.408 425.629 194.748 425.905C193.365 426.459 191.704 426.597 189.768 426.32C188.107 426.044 186.586 426.044 185.202 426.32C182.159 426.874 178.977 427.565 175.656 428.396C172.336 429.226 169.154 429.779 166.11 430.056C161.96 430.609 157.256 430.747 151.999 430.471C147.019 430.471 142.038 430.332 137.058 430.056C132.077 430.056 128.203 429.641 125.437 428.811C122.67 428.257 119.073 427.565 114.646 426.735C111.602 425.905 108.697 424.799 105.93 423.415C103.439 422.308 100.811 421.478 98.0439 420.925C94.7236 420.371 91.9567 419.956 89.7432 419.68C87.5296 419.126 85.4544 418.711 83.5176 418.435C81.5807 418.158 79.6439 418.02 77.707 418.02C75.7702 417.743 73.5566 417.604 71.0664 417.604C63.5957 417.328 56.54 417.743 49.8994 418.85C46.8558 419.403 44.2272 420.648 42.0137 422.585C40.0768 424.245 37.5866 425.629 34.543 426.735C30.3926 428.119 25.6888 429.087 20.4316 429.641C15.4512 430.194 11.8542 430.194 9.64062 429.641C6.59701 428.811 4.7985 427.289 4.24512 425.075C3.69173 422.862 2.72331 420.648 1.33984 418.435C1.06315 412.347 0.924805 406.952 0.924805 402.248C0.924805 397.544 1.61654 392.425 3 386.892C4.38346 381.358 7.15039 375.547 11.3008 369.46C15.4512 363.096 18.6331 357.147 20.8467 351.613C21.4001 350.23 21.5384 348.846 21.2617 347.463C21.2617 345.803 21.5384 344.281 22.0918 342.897C22.6452 341.514 24.167 340.269 26.6572 339.162C29.1475 338.055 30.6693 336.81 31.2227 335.427C31.776 334.597 32.0527 333.767 32.0527 332.937C32.0527 331.83 32.3294 330.861 32.8828 330.031C35.373 324.774 38.555 319.932 42.4287 315.505C46.3024 310.801 50.4528 306.374 54.8799 302.224C59.5837 298.073 64.0107 294.061 68.1611 290.188C72.5882 286.037 76.4619 281.887 79.7822 277.736C85.8695 273.586 90.9883 270.266 95.1387 267.775C99.5658 265.008 103.854 262.518 108.005 260.305C112.432 257.814 116.997 255.186 121.701 252.419C126.682 249.375 132.631 245.502 139.548 240.798C140.655 236.924 142.315 233.465 144.528 230.422C146.742 227.378 148.955 224.611 151.169 222.121C153.382 219.354 155.596 216.726 157.81 214.235C160.3 211.745 162.375 208.84 164.035 205.52C166.802 199.986 169.292 194.175 171.506 188.088C173.719 182.001 173.996 175.637 172.336 168.996C171.506 165.676 169.707 163.047 166.94 161.11C164.174 159.174 160.853 157.79 156.979 156.96C153.382 156.13 149.509 155.853 145.358 156.13C141.485 156.13 137.749 156.683 134.152 157.79C132.215 158.343 129.864 159.174 127.097 160.28C124.606 161.387 121.978 162.632 119.211 164.016C116.721 165.122 114.369 166.368 112.155 167.751C110.218 169.134 108.697 170.38 107.59 171.486C105.376 174.807 103.301 179.095 101.364 184.353C99.7041 189.61 98.0439 194.452 96.3838 198.879C93.6169 206.073 89.3281 211.883 83.5176 216.311C77.707 220.461 70.6514 222.674 62.3506 222.951C60.137 223.228 57.7852 223.366 55.2949 223.366C52.8047 223.366 51.0062 223.09 49.8994 222.536C47.9626 221.983 46.1641 220.738 44.5039 218.801C43.1204 216.864 42.0137 214.512 41.1836 211.745C40.3535 208.978 39.8001 206.073 39.5234 203.029C39.5234 199.709 40.0768 196.527 41.1836 193.483C42.0137 190.993 43.6738 188.641 46.1641 186.428C48.6543 183.938 50.5911 181.586 51.9746 179.372C56.4017 172.455 60.2754 166.091 63.5957 160.28C67.1927 154.193 71.4814 149.074 76.4619 144.924C78.1221 143.54 80.1973 142.434 82.6875 141.604C85.4544 140.497 87.9447 139.252 90.1582 137.868C92.3717 136.485 94.5853 135.24 96.7988 134.133C99.2891 132.749 101.641 131.366 103.854 129.982C111.325 125.279 118.519 120.852 125.437 116.701C132.631 112.551 140.655 109.23 149.509 106.74C153.659 108.124 157.533 108.539 161.13 107.985C165.004 107.155 169.292 107.017 173.996 107.57C180.637 108.124 187.001 109.507 193.088 111.721C199.175 113.934 204.847 116.701 210.104 120.021C215.362 123.065 220.204 126.524 224.631 130.397C229.335 133.994 233.762 137.591 237.912 141.188C240.679 145.892 241.647 151.564 240.817 158.205C240.264 164.569 240.402 171.348 241.232 178.542C241.786 182.416 242.062 186.981 242.062 192.238C242.062 197.219 241.647 202.199 240.817 207.18C239.987 212.16 238.465 216.726 236.252 220.876C234.315 225.026 231.548 228.07 227.951 230.007C227.398 233.604 226.706 236.509 225.876 238.723C225.323 240.66 224.631 242.458 223.801 244.118C222.971 245.502 222.002 247.023 220.896 248.684C219.789 250.067 218.405 252.004 216.745 254.494C215.638 256.431 214.532 258.368 213.425 260.305C212.318 262.242 211.211 263.902 210.104 265.285C208.998 266.669 207.753 267.637 206.369 268.19C204.986 268.744 203.602 269.574 202.219 270.681C198.345 274.554 194.748 277.736 191.428 280.227C188.107 282.44 184.925 285.345 181.882 288.942C176.348 295.03 170.814 300.425 165.28 305.129C160.023 309.556 154.489 314.398 148.679 319.655C143.145 321.869 138.164 324.497 133.737 327.541C129.31 330.585 125.16 334.735 121.286 339.992C114.646 342.206 109.112 346.218 104.685 352.028C100.534 357.562 97.0755 364.064 94.3086 371.535C96.5221 372.089 99.5658 372.227 103.439 371.95C107.313 371.397 111.602 371.397 116.306 371.95C117.966 371.95 120.318 372.227 123.361 372.78C125.852 373.334 128.895 373.887 132.492 374.44C136.366 374.994 140.793 375.962 145.773 377.346Z" fill="url(#paint0_linear_1675_3579)"/>
<defs>
<linearGradient id="paint0_linear_1675_3579" x1="129" y1="0" x2="129" y2="309" gradientUnits="userSpaceOnUse">
<stop stop-color="#FF1975"/>
<stop offset="1" stop-color="#A98CCE"/>
</linearGradient>
</defs>
</svg>
