<svg width="26" height="27" viewBox="0 0 26 27" fill="none" xmlns="http://www.w3.org/2000/svg">
<path d="M18.7617 1.36572L14.2038 8.18245H16.4626L21.5449 1.36572H18.7617Z" fill="#428BC1"/>
<path d="M16.4624 1.36572L11.9448 8.18245H14.2036L18.7615 1.36572H16.4624Z" fill="#E8E8E8"/>
<path d="M14.2036 1.36572L9.68597 8.18245H11.9448L16.4624 1.36572H14.2036Z" fill="#ED4C5C"/>
<path d="M13.0742 25.5675C17.6632 25.5675 21.3834 21.8474 21.3834 17.2584C21.3834 12.6694 17.6632 8.94922 13.0742 8.94922C8.48521 8.94922 4.76508 12.6694 4.76508 17.2584C4.76508 21.8474 8.48521 25.5675 13.0742 25.5675Z" fill="#B2C1C0"/>
<path d="M8.91966 6.6499C8.71798 6.6499 8.55664 6.81124 8.55664 7.01292V10.4011C8.55664 10.6028 8.71798 10.7641 8.91966 10.7641H17.2288C17.4305 10.7641 17.5918 10.6028 17.5918 10.4011V7.01292C17.5918 6.81124 17.4305 6.6499 17.2288 6.6499H8.91966ZM16.8658 9.31206C16.8658 9.51373 16.7044 9.67508 16.5028 9.67508H9.68604C9.48436 9.67508 9.32302 9.51373 9.32302 9.31206V7.7793C9.32302 7.57762 9.48436 7.41628 9.68604 7.41628H16.5028C16.7044 7.41628 16.8658 7.57762 16.8658 7.7793V9.31206Z" fill="#B2C1C0"/>
<path opacity="0.5" d="M5.93497 18.226C5.93497 13.7084 9.40384 10.0378 13.8408 9.71514C13.6391 9.71514 13.3971 9.6748 13.1954 9.6748C8.96015 9.6748 5.53162 13.1033 5.53162 17.3789C5.53162 18.6293 5.8543 19.8394 6.37866 20.8881C6.09632 20.0411 5.93497 19.1537 5.93497 18.226Z" fill="#3E4347"/>
<path opacity="0.33" d="M16.2609 23.6715C20.0121 21.1707 21.1415 16.2901 18.9634 12.4985C19.0844 12.6599 19.2054 12.8212 19.3264 13.0229C21.6659 16.4918 20.6978 21.211 17.1886 23.5908C16.1399 24.3169 14.9701 24.7202 13.8004 24.8412C14.6878 24.5589 15.4945 24.1959 16.2609 23.6715Z" fill="white"/>
<path d="M9.68605 8.18245H11.9448L7.38692 1.36572H4.60376L9.68605 8.18245Z" fill="#ED4C5C"/>
<path d="M11.9449 8.18245H14.2037L9.68609 1.36572H7.38696L11.9449 8.18245Z" fill="#E8E8E8"/>
<path opacity="0.5" d="M13.4372 2.49512L12.3078 4.18921L14.97 8.18244H16.4624L16.8657 7.61774L13.4372 2.49512Z" fill="#3E4347"/>
<path d="M14.2036 8.18245H16.4624L11.9448 1.36572H9.68597L14.2036 8.18245Z" fill="#428BC1"/>
<path opacity="0.5" d="M12.8727 13.2647C12.0256 13.2647 11.3399 13.9504 11.3399 14.7571H10.2508C10.2508 14.8781 10.2105 14.9991 10.2105 15.1201H11.7433C11.7433 14.2731 12.429 13.5874 13.276 13.5874C13.5987 13.5874 13.8811 13.7084 14.1231 13.8697C13.8407 13.547 13.397 13.2647 12.8727 13.2647ZM15.8978 22.3402H10.2508V22.7436H16.3012V21.2108H15.8978V22.3402ZM12.8727 17.8226C12.0256 17.8226 11.3399 18.5083 11.3399 19.3554V20.8881H11.7029V19.7587C11.7029 18.9117 12.3886 18.226 13.2357 18.226C14.8894 18.226 16.2609 16.8546 16.2609 15.2008C16.2609 14.2731 15.8575 13.426 15.1718 12.8613C15.6155 13.3857 15.8978 14.0714 15.8978 14.7974C15.8978 16.4512 14.5668 17.8226 12.8727 17.8226Z" fill="#3E4347"/>
<path opacity="0.33" d="M11.7432 20.848H15.8978V21.211H11.7432V20.848ZM13.2759 16.6934C14.123 16.6934 14.8087 16.0077 14.8087 15.1607C14.8087 14.6363 14.5667 14.1926 14.1633 13.9102C14.3247 14.1523 14.4457 14.4346 14.4457 14.7573C14.4457 15.6043 13.76 16.2901 12.9129 16.2901C11.2592 16.2901 9.88775 17.6615 9.88775 19.3152V22.3404H10.2508V19.6782C10.2508 18.0245 11.5818 16.6934 13.2759 16.6934ZM13.2759 12.1355C14.002 12.1355 14.6877 12.4178 15.2121 12.8615C14.6474 12.2162 13.8406 11.7725 12.8726 11.7725C11.2188 11.7725 9.84741 13.1439 9.84741 14.7976H10.2508C10.4524 13.3052 11.7029 12.1355 13.2759 12.1355Z" fill="white"/>
</svg>
