<svg width="260" height="618" viewBox="0 0 260 618" fill="none" xmlns="http://www.w3.org/2000/svg">
<path d="M191.862 256.569C194.353 260.166 197.95 262.933 202.653 264.87C207.357 266.53 211.923 268.467 216.35 270.681C221.883 276.491 225.065 283.27 225.896 291.018C227.002 298.765 227.141 307.896 226.311 318.41C226.311 319.794 226.172 321.454 225.896 323.391C225.619 325.051 225.204 326.849 224.65 328.786C223.267 333.767 221.468 339.024 219.255 344.558C217.041 349.815 214.551 354.934 211.784 359.914C209.294 364.895 206.665 369.598 203.898 374.025C201.132 378.452 198.503 382.326 196.013 385.646C191.862 390.627 187.02 394.777 181.486 398.098C175.952 401.418 170.834 404.185 166.13 406.398C164.193 406.398 162.948 405.983 162.395 405.153C162.118 404.047 161.288 403.355 159.904 403.078C157.691 406.952 155.201 410.134 152.434 412.624C149.943 414.838 147.038 416.774 143.718 418.435C140.397 420.095 136.662 421.478 132.512 422.585C128.638 423.692 124.211 425.075 119.23 426.735C113.143 428.949 106.226 430.471 98.4785 431.301C90.7311 432.408 82.292 433.099 73.1611 433.376C66.2438 433.653 60.9867 433.653 57.3896 433.376C53.7926 433.099 49.2272 432.961 43.6934 432.961C39.2663 432.961 34.8392 432.684 30.4121 432.131C25.985 431.577 21.8346 430.747 17.9609 429.641C14.3639 428.534 11.182 427.012 8.41504 425.075C5.64811 423.415 3.71126 421.34 2.60449 418.85C1.49772 416.083 1.35938 413.731 2.18945 411.794C2.74284 409.857 4.1263 408.197 6.33984 406.813C8.27669 405.153 10.6286 403.908 13.3955 403.078C16.4391 401.971 19.6211 401.003 22.9414 400.173C26.2617 399.343 29.3053 398.789 32.0723 398.513C35.1159 397.959 38.2979 397.406 41.6182 396.853C44.9385 396.299 48.3971 395.607 51.9941 394.777C55.8678 393.947 60.1566 392.84 64.8604 391.457C69.0107 390.074 72.1927 389.105 74.4062 388.552C76.6198 387.998 79.6634 386.477 83.5371 383.986C87.4108 381.496 91.1462 379.836 94.7432 379.006C98.6169 378.176 102.076 376.377 105.119 373.61C107.056 372.227 108.578 370.843 109.685 369.46C110.791 367.8 112.036 366.278 113.42 364.895C115.91 362.681 119.092 360.744 122.966 359.084C127.116 357.147 129.883 354.657 131.267 351.613C129.606 349.123 129.053 347.186 129.606 345.803C130.16 344.143 130.99 342.482 132.097 340.822C133.48 339.162 134.864 337.225 136.247 335.012C137.907 332.521 139.014 329.201 139.567 325.051C140.397 319.794 140.259 314.951 139.152 310.524C138.322 306.097 136.939 302.085 135.002 298.488C135.002 296.828 135.279 295.583 135.832 294.753C136.385 293.646 136.662 292.263 136.662 290.603C132.788 286.175 127.808 283.409 121.721 282.302C115.633 281.195 108.993 280.918 101.799 281.472C98.4785 281.748 95.1582 282.578 91.8379 283.962C88.5176 285.345 85.7507 285.76 83.5371 285.207C81.877 284.93 80.3551 283.685 78.9717 281.472C77.8649 279.258 76.8965 276.768 76.0664 274.001C75.2363 270.957 74.5446 268.052 73.9912 265.285C73.7145 262.518 73.7145 260.305 73.9912 258.645C75.098 253.941 77.5882 250.344 81.4619 247.854C85.6123 245.363 89.071 242.873 91.8379 240.383C104.289 237.893 115.08 234.434 124.211 230.007C133.342 225.58 142.749 220.323 152.434 214.235C153.817 209.808 156.031 206.35 159.074 203.859C162.395 201.369 165.023 197.91 166.96 193.483C166.96 192.1 166.268 191.27 164.885 190.993C163.501 190.44 162.948 189.333 163.225 187.673C164.608 183.799 165.715 181.032 166.545 179.372C167.652 177.435 168.482 175.775 169.035 174.392C169.589 172.731 169.727 171.071 169.45 169.411C169.45 167.751 168.897 165.122 167.79 161.525C166.683 157.652 164.331 154.47 160.734 151.979C157.414 149.213 152.987 147.829 147.453 147.829C145.24 147.829 142.473 148.244 139.152 149.074C136.109 149.628 132.927 150.458 129.606 151.564C126.286 152.671 123.104 153.916 120.061 155.3C117.294 156.683 115.218 157.928 113.835 159.035C112.175 160.419 109.961 161.664 107.194 162.771C104.427 163.877 102.767 165.537 102.214 167.751C101.107 170.795 100.83 174.115 101.384 177.712C101.937 181.032 101.66 184.629 100.554 188.503C99.4469 192.1 97.3717 195.282 94.3281 198.049C91.5612 200.539 88.6559 202.891 85.6123 205.104C83.3988 206.488 80.3551 207.595 76.4814 208.425C72.6077 208.978 68.8724 208.978 65.2754 208.425C61.9551 207.871 58.7731 206.488 55.7295 204.274C52.9626 201.784 50.0573 200.262 47.0137 199.709C46.4603 198.326 45.9069 196.804 45.3535 195.144C44.8001 193.483 44.2467 191.823 43.6934 190.163C45.3535 183.799 46.737 177.989 47.8438 172.731C48.9505 167.198 51.1641 162.355 54.4844 158.205C59.4648 151.841 65.137 146.446 71.501 142.019C77.8649 137.591 84.6439 133.164 91.8379 128.737C95.4349 126.8 98.7552 124.725 101.799 122.512C104.842 120.298 108.163 118.361 111.76 116.701C115.633 114.488 119.646 112.966 123.796 112.136C127.946 111.029 131.682 109.369 135.002 107.155C142.473 107.155 150.082 106.602 157.829 105.495C165.576 104.112 173.186 103.282 180.656 103.005C184.807 103.005 188.957 103.558 193.107 104.665C197.535 105.772 201.823 107.155 205.974 108.815C210.124 110.199 214.274 111.582 218.425 112.966C222.575 114.349 226.587 115.179 230.461 115.456C232.674 118.5 235.303 120.713 238.347 122.097C241.39 123.48 243.742 125.97 245.402 129.567C246.509 131.504 246.924 133.441 246.647 135.378C246.371 137.315 246.924 139.113 248.308 140.773C248.861 142.157 249.829 143.264 251.213 144.094C252.873 144.924 253.98 145.892 254.533 146.999C256.747 150.596 258.13 155.161 258.684 160.695C259.514 165.952 259.79 170.518 259.514 174.392C259.237 181.586 257.023 188.918 252.873 196.389C248.999 203.583 245.679 210.915 242.912 218.386C228.247 233.604 211.231 246.332 191.862 256.569Z" fill="url(#paint0_linear_1675_3581)"/>
<defs>
<linearGradient id="paint0_linear_1675_3581" x1="134" y1="0" x2="134" y2="309" gradientUnits="userSpaceOnUse">
<stop stop-color="#FF1975"/>
<stop offset="1" stop-color="#A98CCE"/>
</linearGradient>
</defs>
</svg>
