<svg width="27" height="27" viewBox="0 0 27 27" fill="none" xmlns="http://www.w3.org/2000/svg">
<path d="M19.0112 1.28857L14.4392 8.1264H16.705L21.803 1.28857H19.0112Z" fill="#428BC1"/>
<path d="M16.7048 1.28857L12.1732 8.1264H14.439L19.011 1.28857H16.7048Z" fill="#E8E8E8"/>
<path d="M14.439 1.28857L9.90747 8.1264H12.1733L16.7048 1.28857H14.439Z" fill="#ED4C5C"/>
<path d="M13.3062 25.5648C17.9094 25.5648 21.641 21.8331 21.641 17.2299C21.641 12.6267 17.9094 8.89502 13.3062 8.89502C8.70296 8.89502 4.97131 12.6267 4.97131 17.2299C4.97131 21.8331 8.70296 25.5648 13.3062 25.5648Z" fill="#D3976E"/>
<path d="M9.1388 6.58887C8.9365 6.58887 8.77466 6.75071 8.77466 6.95301V10.3517C8.77466 10.554 8.9365 10.7158 9.1388 10.7158H17.4737C17.676 10.7158 17.8378 10.554 17.8378 10.3517V6.95301C17.8378 6.75071 17.676 6.58887 17.4737 6.58887H9.1388ZM17.1095 9.25926C17.1095 9.46156 16.9477 9.62341 16.7454 9.62341H9.90755C9.70525 9.62341 9.54341 9.46156 9.54341 9.25926V7.72176C9.54341 7.51946 9.70525 7.35762 9.90755 7.35762H16.7454C16.9477 7.35762 17.1095 7.51946 17.1095 7.72176V9.25926Z" fill="#D3976E"/>
<path opacity="0.5" d="M6.14484 18.2012C6.14484 13.6696 9.62445 9.98768 14.0751 9.664C13.8728 9.664 13.63 9.62354 13.4277 9.62354C9.17938 9.62354 5.74023 13.0627 5.74023 17.3515C5.74023 18.6058 6.06392 19.8196 6.58991 20.8716C6.30668 20.0219 6.14484 19.1318 6.14484 18.2012Z" fill="#3E4347"/>
<path opacity="0.33" d="M16.5028 23.6631C20.2656 21.1546 21.3985 16.2589 19.2136 12.4556L19.5778 12.9411C21.9245 16.4207 20.9534 21.1546 17.4334 23.5417C16.3814 24.27 15.208 24.6746 14.0347 24.796C14.9248 24.5533 15.734 24.1891 16.5028 23.6631Z" fill="white"/>
<path d="M9.90747 8.1264H12.1733L7.60122 1.28857H4.80945L9.90747 8.1264Z" fill="#ED4C5C"/>
<path d="M12.1734 8.1264H14.4391L9.90757 1.28857H7.60132L12.1734 8.1264Z" fill="#E8E8E8"/>
<path opacity="0.5" d="M13.6702 2.42139L12.5374 4.12073L15.2077 8.12632H16.7048L17.1094 7.55987L13.6702 2.42139Z" fill="#3E4347"/>
<path d="M14.439 8.1264H16.7048L12.1733 1.28857H9.90747L14.439 8.1264Z" fill="#428BC1"/>
<path opacity="0.5" d="M13.104 13.2244C12.2543 13.2244 11.5665 13.9122 11.5665 14.7214H10.4741C10.4741 14.8428 10.4336 14.9642 10.4336 15.0855H11.9711C11.9711 14.2359 12.6589 13.548 13.5086 13.548C13.8323 13.548 14.1155 13.6694 14.3583 13.8313C14.075 13.5076 13.63 13.2244 13.104 13.2244ZM15.4912 17.3918C16.1385 16.8253 16.5431 16.0161 16.5431 15.126C16.5431 14.1954 16.1385 13.3457 15.4507 12.7793C15.8958 13.3053 16.179 13.9931 16.179 14.7214C16.179 15.6115 15.7744 16.4612 15.127 16.9872C15.7744 17.5536 16.179 18.3628 16.179 19.253C16.179 20.9119 14.8033 22.2875 13.1444 22.2875C12.4162 22.2875 11.7283 22.0043 11.2023 21.5592C11.7688 22.2066 12.578 22.6517 13.5491 22.6517C15.2079 22.6517 16.5836 21.276 16.5836 19.6171C16.5431 18.7675 16.1385 17.9582 15.4912 17.3918Z" fill="#3E4347"/>
<path opacity="0.33" d="M13.5085 12.0917C14.2368 12.0917 14.9246 12.3749 15.4506 12.82C14.8841 12.1726 14.0749 11.7275 13.1039 11.7275C11.445 11.7275 10.0693 13.1032 10.0693 14.7621H10.4739C10.6762 13.265 11.9305 12.0917 13.5085 12.0917ZM15.0055 15.1262C15.0055 14.6002 14.7628 14.1552 14.3582 13.8719C14.52 14.1147 14.6414 14.3979 14.6414 14.7216C14.6414 15.5713 13.9535 16.2591 13.1039 16.2591V17.7966C13.2253 17.7966 13.3466 17.8371 13.468 17.8371V16.6637C14.3177 16.6637 15.0055 15.9759 15.0055 15.1262ZM13.5085 21.1953C14.3582 21.1953 15.046 20.5075 15.046 19.6578C15.046 19.1318 14.8032 18.6867 14.3986 18.4035C14.5605 18.6463 14.6818 18.9295 14.6818 19.2532C14.6818 20.1029 13.994 20.7907 13.1443 20.7907C12.8207 20.7907 12.5374 20.6693 12.2947 20.5075C12.5374 20.9525 12.9825 21.1953 13.5085 21.1953ZM11.6473 19.6983C11.6068 19.5769 11.6068 19.4555 11.6068 19.3341H10.0693C10.0693 20.2647 10.4739 21.1144 11.1618 21.6808C10.7167 21.1548 10.4335 20.467 10.4335 19.7387L11.6473 19.6983Z" fill="white"/>
</svg>
