<svg width="56" height="56" viewBox="0 0 56 56" fill="none" xmlns="http://www.w3.org/2000/svg">
<path d="M27.8868 55.7602C24.2236 55.762 20.5959 55.0417 17.2113 53.6404C13.8267 52.2392 10.7515 50.1845 8.16156 47.5939C5.5716 45.0033 3.51769 41.9277 2.11726 38.5427C0.716837 35.1578 -0.00262986 31.53 7.22311e-06 27.8668C7.22311e-06 27.3385 7.02042e-06 26.7968 0.0468193 26.215C0.472855 19.1211 3.59113 12.4576 8.76471 7.58538C13.9383 2.71319 20.7768 0 27.8834 0C34.9901 0 41.8286 2.71319 47.0021 7.58538C52.1757 12.4576 55.294 19.1211 55.72 26.215C55.72 26.7968 55.7735 27.3385 55.7735 27.8668C55.7753 31.5297 55.0552 35.1571 53.6545 38.5417C52.2537 41.9262 50.1998 45.0016 47.61 47.592C45.0202 50.1824 41.9454 52.2371 38.5612 53.6386C35.1769 55.0402 31.5497 55.7611 27.8868 55.7602ZM27.8868 1.3242C21.1188 1.32085 14.6053 3.90365 9.67881 8.54423C4.75231 13.1848 1.78514 19.5324 1.38431 26.2885C1.38431 26.8503 1.3375 27.3652 1.3375 27.8668C1.3375 34.9081 4.13465 41.661 9.1136 46.6399C14.0926 51.6189 20.8455 54.416 27.8868 54.416C34.9281 54.416 41.681 51.6189 46.6599 46.6399C51.6389 41.661 54.436 34.9081 54.436 27.8668C54.436 27.3652 54.436 26.8503 54.3825 26.2885C53.9849 19.5325 51.0197 13.1839 46.0939 8.54288C41.1681 3.90182 34.6545 1.31933 27.8868 1.3242Z" fill="#093F68" fill-opacity="0.2"/>
<path d="M27.8858 18.6187L18.0151 25.7876L21.7869 37.3837H33.9781L37.7499 25.7876L27.8858 18.6187Z" fill="#093F68" fill-opacity="0.2"/>
<path d="M33.9796 38.0523H21.7884C21.6474 38.0522 21.51 38.0075 21.3959 37.9246C21.2818 37.8418 21.1968 37.7249 21.1531 37.5908L17.3813 25.9948C17.3379 25.8598 17.3384 25.7145 17.3829 25.5799C17.4273 25.4453 17.5135 25.3283 17.6288 25.2458L27.4928 18.0768C27.6067 17.9947 27.7436 17.9504 27.884 17.9504C28.0245 17.9504 28.1613 17.9947 28.2752 18.0768L38.146 25.2458C38.2601 25.3292 38.3449 25.4466 38.3881 25.5811C38.4314 25.7157 38.4309 25.8605 38.3867 25.9948L34.615 37.5908C34.5712 37.7249 34.4863 37.8418 34.3722 37.9246C34.2581 38.0075 34.1207 38.0522 33.9796 38.0523ZM22.2766 36.7148H33.4981L36.9623 26.0148L27.8874 19.4544L18.8058 26.0483L22.2766 36.7148Z" fill="#093F68" fill-opacity="0.2"/>
<path d="M38.9679 3.00322L27.8868 11.0282L16.8057 3.00322C20.295 1.45566 24.0697 0.656128 27.8868 0.656128C31.7039 0.656128 35.4787 1.45566 38.9679 3.00322Z" fill="#093F68" fill-opacity="0.2"/>
<path d="M27.8874 11.7238C27.7462 11.7217 27.6088 11.6775 27.4929 11.5967L16.4117 3.57178C16.3168 3.50324 16.2414 3.41095 16.1933 3.30415C16.1452 3.19735 16.126 3.07978 16.1376 2.96321C16.1499 2.84619 16.1928 2.73449 16.2621 2.63938C16.3314 2.54427 16.4245 2.46913 16.5321 2.42153C20.111 0.830123 23.9841 0.0078125 27.9008 0.0078125C31.8176 0.0078125 35.6907 0.830123 39.2695 2.42153C39.3759 2.47004 39.4677 2.54559 39.5357 2.64064C39.6038 2.73568 39.6457 2.8469 39.6574 2.96321C39.6697 3.07917 39.6516 3.19634 39.6046 3.30309C39.5577 3.40984 39.4837 3.50247 39.3899 3.57178L28.3088 11.5967C28.1854 11.6827 28.0378 11.7272 27.8874 11.7238ZM18.1572 3.16384L27.8874 10.2258L37.6177 3.16384C31.3626 0.712008 24.4123 0.712008 18.1572 3.16384Z" fill="#093F68" fill-opacity="0.2"/>
<path d="M11.0733 21.6412L0.714355 26.2556C1.12093 19.2346 4.23789 12.6459 9.40807 7.87842L9.62876 7.93192L11.0532 21.4607L11.0733 21.6412Z" fill="#093F68" fill-opacity="0.2"/>
<path d="M0.716583 26.9245C0.625281 26.9247 0.534915 26.9062 0.451047 26.8701C0.36718 26.834 0.29159 26.7811 0.228936 26.7147C0.166283 26.6483 0.117891 26.5697 0.0867447 26.4839C0.0555986 26.3981 0.0423576 26.3068 0.0478359 26.2157C0.464801 19.0309 3.6591 12.2898 8.95555 7.41718C9.03532 7.3436 9.1318 7.29053 9.23666 7.26257C9.34152 7.23461 9.45161 7.23258 9.55742 7.25667L9.77811 7.30349C9.91508 7.33354 10.0391 7.40588 10.1327 7.51028C10.2263 7.61469 10.2848 7.74588 10.2997 7.8853L11.7375 21.6013C11.7501 21.7392 11.7195 21.8776 11.65 21.9974C11.5806 22.1172 11.4756 22.2125 11.3497 22.2701L0.990772 26.8844C0.90318 26.9168 0.809778 26.9304 0.716583 26.9245ZM9.08261 9.12248C4.76369 13.4297 2.07381 19.1025 1.47227 25.1724L10.3599 21.2134L9.08261 9.12248Z" fill="#093F68" fill-opacity="0.2"/>
<path d="M55.0586 26.2554L44.6997 21.641V21.4605L46.1241 7.9317L46.3448 7.88489C51.5232 12.6457 54.6478 19.2332 55.0586 26.2554Z" fill="#093F68" fill-opacity="0.2"/>
<path d="M55.0571 26.9239C54.9646 26.924 54.8732 26.9034 54.7896 26.8637L44.4307 22.2494C44.3036 22.1928 44.1972 22.098 44.1265 21.9781C44.0557 21.8583 44.0242 21.7193 44.0362 21.5806V21.4001L45.4673 7.86463C45.4827 7.7243 45.5421 7.59243 45.637 7.48792C45.7319 7.38342 45.8574 7.31162 45.9956 7.28282L46.2163 7.236C46.3206 7.21504 46.4284 7.21928 46.5308 7.24836C46.6331 7.27744 46.7271 7.33051 46.8048 7.40319C52.1128 12.2743 55.313 19.0226 55.7259 26.215C55.7314 26.3062 55.7181 26.3975 55.687 26.4833C55.6558 26.5691 55.6074 26.6477 55.5448 26.7141C55.4821 26.7805 55.4065 26.8334 55.3227 26.8695C55.2388 26.9055 55.1484 26.9241 55.0571 26.9239ZM45.4138 21.2262L54.3014 25.1852C53.7037 19.1143 51.0133 13.4402 46.6911 9.13525L45.4138 21.2262Z" fill="#093F68" fill-opacity="0.2"/>
<path d="M51.8348 40.8075C48.4912 46.9895 42.89 51.642 36.1995 53.7946L38.7674 42.0982H38.9213L51.8348 40.8075Z" fill="#093F68" fill-opacity="0.2"/>
<path d="M36.1991 54.4634C36.0334 54.4629 35.8737 54.401 35.751 54.2895C35.6592 54.2073 35.5919 54.1014 35.5565 53.9834C35.5211 53.8654 35.519 53.7399 35.5504 53.6207L38.1117 41.9244C38.1425 41.7854 38.2168 41.6599 38.3239 41.566C38.4309 41.4722 38.5651 41.415 38.7069 41.4027H38.8607L51.7675 40.1254C51.8894 40.1105 52.0131 40.1295 52.1249 40.1802C52.2368 40.231 52.3325 40.3115 52.4016 40.4131C52.4707 40.5146 52.5104 40.6332 52.5166 40.7559C52.5227 40.8786 52.4949 41.0006 52.4363 41.1085C49.0247 47.4518 43.2817 52.2212 36.4198 54.4099C36.3508 54.4431 36.2756 54.4613 36.1991 54.4634ZM39.3155 42.7202L37.1086 52.7514C42.7501 50.6721 47.5132 46.7299 50.6106 41.5766L39.3155 42.7202Z" fill="#093F68" fill-opacity="0.2"/>
<path d="M19.6144 53.8146C12.9335 51.6785 7.33192 47.0516 3.97241 40.8944L16.8725 42.0045V42.0447L19.6144 53.8146Z" fill="#093F68" fill-opacity="0.2"/>
<path d="M19.6152 54.4833C19.5464 54.4929 19.4766 54.4929 19.4078 54.4833C12.5435 52.3173 6.78887 47.5698 3.35791 41.2421C3.29921 41.1404 3.26831 41.0251 3.26831 40.9077C3.26831 40.7903 3.29921 40.675 3.35791 40.5734C3.42381 40.4724 3.51578 40.3911 3.62408 40.3382C3.73239 40.2852 3.853 40.2625 3.97316 40.2724L16.88 41.3892C17.0209 41.4011 17.1544 41.4574 17.2613 41.5499C17.3683 41.6424 17.4431 41.7664 17.4752 41.9042L20.2839 53.6607C20.3161 53.7793 20.315 53.9044 20.2808 54.0224C20.2466 54.1403 20.1806 54.2466 20.09 54.3295C19.9575 54.4401 19.7873 54.4952 19.6152 54.4833ZM5.19028 41.6701C8.29932 46.8013 13.0605 50.723 18.6923 52.7914L16.3316 42.6331L5.19028 41.6701Z" fill="#093F68" fill-opacity="0.2"/>
<path d="M18.0152 26.4563C17.8923 26.4554 17.7719 26.4207 17.6674 26.356L8.47886 20.6515C8.34783 20.5503 8.25902 20.4041 8.22962 20.2411C8.20022 20.0782 8.23232 19.9101 8.31971 19.7694C8.40709 19.6288 8.54355 19.5256 8.70266 19.4797C8.86178 19.4339 9.03224 19.4487 9.18105 19.5214L18.3696 25.2191C18.4934 25.2958 18.5888 25.4108 18.6412 25.5466C18.6937 25.6825 18.7003 25.8317 18.6602 25.9717C18.6201 26.1117 18.5354 26.2348 18.419 26.3222C18.3026 26.4097 18.1608 26.4567 18.0152 26.4563Z" fill="#093F68" fill-opacity="0.2"/>
<path d="M37.7366 26.4559C37.591 26.4564 37.4492 26.4093 37.3328 26.3219C37.2163 26.2344 37.1316 26.1114 37.0915 25.9714C37.0514 25.8314 37.0581 25.6822 37.1106 25.5463C37.163 25.4105 37.2584 25.2955 37.3821 25.2188L46.5707 19.521C46.6448 19.4638 46.73 19.4228 46.8209 19.4006C46.9117 19.3784 47.0063 19.3755 47.0983 19.3921C47.1904 19.4087 47.278 19.4445 47.3554 19.497C47.4328 19.5496 47.4983 19.6178 47.5477 19.6973C47.597 19.7768 47.6292 19.8657 47.642 19.9584C47.6549 20.0511 47.6481 20.1454 47.6222 20.2353C47.5963 20.3252 47.5519 20.4087 47.4917 20.4803C47.4315 20.552 47.357 20.6102 47.2729 20.6512L38.0843 26.3556C37.9798 26.4204 37.8595 26.4551 37.7366 26.4559Z" fill="#093F68" fill-opacity="0.2"/>
<path d="M27.8865 21.173C27.7092 21.173 27.5391 21.1025 27.4136 20.9771C27.2882 20.8517 27.2178 20.6816 27.2178 20.5043V11.0549C27.2178 10.8775 27.2882 10.7074 27.4136 10.582C27.5391 10.4566 27.7092 10.3861 27.8865 10.3861C28.0639 10.3861 28.234 10.4566 28.3594 10.582C28.4848 10.7074 28.5553 10.8775 28.5553 11.0549V20.5043C28.5553 20.6816 28.4848 20.8517 28.3594 20.9771C28.234 21.1025 28.0639 21.173 27.8865 21.173Z" fill="#093F68" fill-opacity="0.2"/>
<path d="M15.0472 44.4723C14.9141 44.4718 14.7842 44.4316 14.6741 44.3568C14.564 44.282 14.4787 44.1761 14.4292 44.0526C14.3796 43.9291 14.3681 43.7936 14.396 43.6634C14.4238 43.5333 14.4899 43.4144 14.5858 43.3221L21.3267 36.8954C21.4553 36.773 21.6273 36.7068 21.8047 36.7111C21.9822 36.7155 22.1506 36.7902 22.273 36.9188C22.3954 37.0474 22.4617 37.2193 22.4573 37.3968C22.4529 37.5743 22.3782 37.7427 22.2496 37.8651L15.5086 44.2918C15.3836 44.4088 15.2185 44.4734 15.0472 44.4723Z" fill="#093F68" fill-opacity="0.2"/>
<path d="M40.7261 44.4723C40.5548 44.4734 40.3896 44.4088 40.2646 44.2918L33.517 37.8651C33.3884 37.7427 33.3137 37.5743 33.3093 37.3968C33.3049 37.2193 33.3712 37.0474 33.4936 36.9188C33.6159 36.7902 33.7844 36.7155 33.9619 36.7111C34.1393 36.7068 34.3113 36.773 34.4398 36.8954L41.1875 43.3221C41.312 43.4474 41.382 43.6169 41.382 43.7936C41.382 43.9702 41.312 44.1397 41.1875 44.265C41.0668 44.3919 40.9011 44.4663 40.7261 44.4723Z" fill="#093F68" fill-opacity="0.2"/>
</svg>
