<svg width="41" height="42" viewBox="0 0 41 42" fill="none" xmlns="http://www.w3.org/2000/svg">
<path fill-rule="evenodd" clip-rule="evenodd" d="M6.1502 5.92633L20.1874 19.5316L13.904 1.11468C13.9979 1.08232 14.0922 1.05063 14.1867 1.0196L18.7151 0.0826903C19.2044 0.0378354 19.6986 0.0100712 20.1972 0L21.0271 18.8804L29.4101 1.95669C30.6101 2.52281 31.7466 3.20126 32.8062 3.97849L23.2264 18.8804L38.9365 11.1301C39.9447 13.0724 40.653 15.1954 41 17.4377L23.2264 20.3999L40.8981 24.3971C40.6321 25.8333 40.2172 27.2174 39.6701 28.5326L23.2264 21.4853L34.1131 36.2143C32.684 37.4516 31.0832 38.4957 29.3511 39.3061L22.3581 22.3536L19.5721 41.2131C18.7792 41.1734 17.9982 41.0889 17.2315 40.962L16.4972 40.8047L21.0557 22.3536L7.05153 36.1456C5.14118 34.4747 3.54191 32.457 2.35196 30.1907L20.1874 21.4853H0.0179257C0.00601445 21.1975 0 20.9082 0 20.6176C0 19.5334 0.0836657 18.4687 0.244893 17.4298L20.1874 20.3999L3.0124 9.88022C3.89514 8.43561 4.95065 7.10807 6.1502 5.92633Z" fill="url(#paint0_radial_1676_6702)" fill-opacity="0.5"/>
<path d="M25.1132 26.7415V24.9145H24.5895C23.6724 23.3955 21.6464 22.3398 19.2952 22.3398C16.944 22.3398 14.9175 23.3955 14.0004 24.9145H13.4767V26.7415C13.4767 29.1732 16.0817 31.1438 19.2952 31.1438C22.5088 31.1438 25.1132 29.176 25.1132 26.7415Z" fill="#E86124"/>
<path d="M15.1959 26.7415V24.9145H15.7195C16.5232 23.5838 18.1786 22.6092 20.1548 22.3873C19.8694 22.3556 19.5824 22.3397 19.2952 22.3398C16.9435 22.3398 14.9175 23.3955 14.0004 24.9145H13.4767V26.7415C13.4767 29.1732 16.0817 31.1438 19.2952 31.1438C19.5824 31.144 19.8694 31.1279 20.1548 31.0957C17.3487 30.7816 15.1959 28.9524 15.1959 26.7415Z" fill="#DC4A26"/>
<path d="M19.2952 29.3168C22.5087 29.3168 25.1137 27.3459 25.1137 24.9146C25.1137 22.4832 22.5087 20.5123 19.2952 20.5123C16.0818 20.5123 13.4767 22.4832 13.4767 24.9146C13.4767 27.3459 16.0818 29.3168 19.2952 29.3168Z" fill="#F0E92D"/>
<path d="M19.2954 28.1001C21.6209 28.1001 23.506 26.6739 23.506 24.9145C23.506 23.1551 21.6209 21.7289 19.2954 21.7289C16.97 21.7289 15.0848 23.1551 15.0848 24.9145C15.0848 26.6739 16.97 28.1001 19.2954 28.1001Z" fill="#EF8521"/>
<path d="M16.3197 25.4667C16.3197 23.6922 17.661 22.1972 19.4874 21.7322C19.4237 21.7322 19.3594 21.7283 19.2952 21.7283C16.9691 21.7283 15.084 23.1546 15.084 24.9139C15.084 26.0462 15.8664 27.0377 17.0401 27.6049C16.575 26.9889 16.3222 26.2386 16.3197 25.4667Z" fill="#E86124"/>
<path d="M24.4988 24.0963V22.2688H23.9752C23.0575 20.7498 21.0321 19.694 18.6803 19.694C16.3286 19.694 14.3032 20.7498 13.3855 22.2688H12.8618V24.0963C12.8618 26.5274 15.4668 28.4986 18.6803 28.4986C21.8939 28.4986 24.4988 26.5274 24.4988 24.0963Z" fill="#E86124"/>
<path d="M14.5815 24.0963V22.2688H15.1052C15.9083 20.9387 17.5643 19.964 19.5399 19.7421C19.2545 19.7102 18.9675 19.6941 18.6803 19.694C16.3286 19.694 14.3032 20.7498 13.3855 22.2688H12.8618V24.0963C12.8618 26.5274 15.4668 28.4986 18.6803 28.4986C18.9675 28.4985 19.2545 28.4825 19.5399 28.4505C16.7343 28.1365 14.5815 26.3067 14.5815 24.0963Z" fill="#DC4A26"/>
<path d="M18.6803 26.6711C21.8938 26.6711 24.4988 24.7001 24.4988 22.2688C24.4988 19.8375 21.8938 17.8665 18.6803 17.8665C15.4669 17.8665 12.8618 19.8375 12.8618 22.2688C12.8618 24.7001 15.4669 26.6711 18.6803 26.6711Z" fill="#F0E92D"/>
<path d="M18.6806 25.4543C21.006 25.4543 22.8912 24.0281 22.8912 22.2687C22.8912 20.5094 21.006 19.0831 18.6806 19.0831C16.3551 19.0831 14.47 20.5094 14.47 22.2687C14.47 24.0281 16.3551 25.4543 18.6806 25.4543Z" fill="#EF8521"/>
<path d="M15.7057 22.8215C15.7057 21.047 17.047 19.552 18.8734 19.087C18.8091 19.087 18.7454 19.0831 18.6806 19.0831C16.3551 19.0831 14.47 20.5094 14.47 22.2687C14.47 23.401 15.2524 24.3925 16.426 24.9597C15.9606 24.3439 15.7077 23.5935 15.7057 22.8215Z" fill="#E86124"/>
<path d="M25.1132 21.426V19.5985H24.5895C23.6724 18.0795 21.6464 17.0237 19.2952 17.0237C16.944 17.0237 14.9175 18.0795 14.0004 19.5985H13.4767V21.426C13.4767 23.8572 16.0817 25.8278 19.2952 25.8278C22.5088 25.8278 25.1132 23.8572 25.1132 21.426Z" fill="#E86124"/>
<path d="M15.1959 21.426V19.5985H15.7195C16.5232 18.2678 18.1786 17.2931 20.1548 17.0718C19.8694 17.0396 19.5824 17.0236 19.2952 17.0237C16.9435 17.0237 14.9175 18.0795 14.0004 19.5985H13.4767V21.426C13.4767 23.8572 16.0817 25.8278 19.2952 25.8278C19.5824 25.8279 19.8694 25.812 20.1548 25.7803C17.3487 25.4656 15.1959 23.6358 15.1959 21.426Z" fill="#DC4A26"/>
<path d="M19.2952 24.0007C22.5087 24.0007 25.1137 22.0298 25.1137 19.5985C25.1137 17.1671 22.5087 15.1962 19.2952 15.1962C16.0818 15.1962 13.4767 17.1671 13.4767 19.5985C13.4767 22.0298 16.0818 24.0007 19.2952 24.0007Z" fill="#F0E92D"/>
<path d="M19.2954 22.7841C21.6209 22.7841 23.506 21.3578 23.506 19.5985C23.506 17.8391 21.6209 16.4128 19.2954 16.4128C16.97 16.4128 15.0848 17.8391 15.0848 19.5985C15.0848 21.3578 16.97 22.7841 19.2954 22.7841Z" fill="#EF8521"/>
<path d="M16.3197 20.1506C16.3197 18.3767 17.661 16.8812 19.4874 16.4162C19.4237 16.4162 19.3594 16.4128 19.2952 16.4128C16.9691 16.4128 15.084 17.8391 15.084 19.5985C15.084 20.7307 15.8664 21.7222 17.0401 22.2895C16.5749 21.6732 16.3221 20.9227 16.3197 20.1506Z" fill="#E86124"/>
<path d="M24.4988 18.7808V16.9532H23.9752C23.0575 15.4342 21.0321 14.3785 18.6803 14.3785C16.3286 14.3785 14.3032 15.4342 13.3855 16.9532H12.8618V18.7808C12.8618 21.2119 15.4668 23.1825 18.6803 23.1825C21.8939 23.1825 24.4988 21.2119 24.4988 18.7808Z" fill="#E86124"/>
<path d="M14.5815 18.7808V16.9532H15.1052C15.9083 15.6225 17.5643 14.6479 19.5399 14.426C19.2545 14.3942 18.9675 14.3784 18.6803 14.3785C16.3286 14.3785 14.3032 15.4342 13.3855 16.9532H12.8618V18.7808C12.8618 21.2119 15.4668 23.1825 18.6803 23.1825C18.9675 23.1827 19.2545 23.1667 19.5399 23.1344C16.7343 22.8203 14.5815 20.9906 14.5815 18.7808Z" fill="#DC4A26"/>
<path d="M18.6803 21.3556C21.8938 21.3556 24.4988 19.3846 24.4988 16.9533C24.4988 14.522 21.8938 12.551 18.6803 12.551C15.4669 12.551 12.8618 14.522 12.8618 16.9533C12.8618 19.3846 15.4669 21.3556 18.6803 21.3556Z" fill="#F0E92D"/>
<path d="M18.6806 20.1389C21.006 20.1389 22.8912 18.7126 22.8912 16.9532C22.8912 15.1939 21.006 13.7676 18.6806 13.7676C16.3551 13.7676 14.47 15.1939 14.47 16.9532C14.47 18.7126 16.3551 20.1389 18.6806 20.1389Z" fill="#EF8521"/>
<path d="M15.7057 17.5055C15.7057 15.7311 17.047 14.2361 18.8734 13.7711C18.8091 13.7711 18.7454 13.7672 18.6806 13.7672C16.3551 13.7672 14.47 15.1934 14.47 16.9528C14.47 18.085 15.2524 19.0765 16.426 19.6438C15.9607 19.0278 15.7079 18.2774 15.7057 17.5055Z" fill="#E86124"/>
<path d="M35.1427 27.5848V25.7573H34.619C33.7013 24.2383 31.676 23.1826 29.3242 23.1826C26.9724 23.1826 24.9465 24.2383 24.0294 25.7573H23.5057V27.5848C23.5057 30.016 26.1106 31.9871 29.3242 31.9871C32.5378 31.9871 35.1427 30.0143 35.1427 27.5848Z" fill="#E86124"/>
<path d="M25.2248 27.5848V25.7573H25.7485C26.5522 24.4272 28.2076 23.4519 30.1838 23.2306C29.8984 23.1984 29.6114 23.1824 29.3242 23.1826C26.9724 23.1826 24.9465 24.2383 24.0294 25.7573H23.5057V27.5848C23.5057 30.016 26.1106 31.9871 29.3242 31.9871C29.6114 31.987 29.8983 31.971 30.1838 31.9391C27.3782 31.6244 25.2248 29.7952 25.2248 27.5848Z" fill="#DC4A26"/>
<path d="M29.3242 30.1596C32.5377 30.1596 35.1427 28.1886 35.1427 25.7573C35.1427 23.326 32.5377 21.355 29.3242 21.355C26.1107 21.355 23.5057 23.326 23.5057 25.7573C23.5057 28.1886 26.1107 30.1596 29.3242 30.1596Z" fill="#F0E92D"/>
<path d="M29.3244 28.9429C31.6499 28.9429 33.535 27.5167 33.535 25.7573C33.535 23.998 31.6499 22.5717 29.3244 22.5717C26.999 22.5717 25.1138 23.998 25.1138 25.7573C25.1138 27.5167 26.999 28.9429 29.3244 28.9429Z" fill="#EF8521"/>
<path d="M26.3487 26.3095C26.3487 24.5356 27.69 23.0401 29.5164 22.5751C29.4527 22.5751 29.3884 22.5717 29.3242 22.5717C26.9987 22.5717 25.113 23.998 25.113 25.7573C25.113 26.8896 25.8954 27.8811 27.0691 28.4483C26.6038 27.8321 26.351 27.0816 26.3487 26.3095Z" fill="#E86124"/>
<path d="M34.2547 24.5412V22.7137H33.7311C32.8139 21.1946 30.788 20.1389 28.4362 20.1389C26.0845 20.1389 24.0591 21.1946 23.142 22.7137H22.6183V24.5412C22.6183 26.9723 25.2233 28.9429 28.4362 28.9429C31.6492 28.9429 34.2547 26.9723 34.2547 24.5412Z" fill="#E86124"/>
<path d="M24.3374 24.5412V22.7137H24.8594C25.6631 21.383 27.3185 20.4083 29.2947 20.1864C29.0096 20.1547 28.7231 20.1389 28.4362 20.1389C26.085 20.1389 24.0591 21.1946 23.142 22.7137H22.6183V24.5412C22.6183 26.9723 25.2233 28.9429 28.4362 28.9429C28.7236 28.943 29.0108 28.9272 29.2964 28.8954C26.4902 28.5808 24.3374 26.751 24.3374 24.5412Z" fill="#DC4A26"/>
<path d="M28.4364 27.116C31.6499 27.116 34.2549 25.145 34.2549 22.7137C34.2549 20.2824 31.6499 18.3114 28.4364 18.3114C25.2229 18.3114 22.6179 20.2824 22.6179 22.7137C22.6179 25.145 25.2229 27.116 28.4364 27.116Z" fill="#F0E92D"/>
<path d="M28.4362 25.8993C30.7617 25.8993 32.6468 24.4731 32.6468 22.7137C32.6468 20.9543 30.7617 19.5281 28.4362 19.5281C26.1108 19.5281 24.2256 20.9543 24.2256 22.7137C24.2256 24.4731 26.1108 25.8993 28.4362 25.8993Z" fill="#EF8521"/>
<path d="M25.4613 23.2659C25.4613 21.492 26.8026 19.9964 28.629 19.5314C28.5653 19.5292 28.501 19.5281 28.4362 19.5281C26.1107 19.5281 24.2256 20.9543 24.2256 22.7137C24.2256 23.846 25.008 24.8374 26.1817 25.4047C25.7165 24.7885 25.4637 24.038 25.4613 23.2659Z" fill="#E86124"/>
<path d="M17.4219 24.1399L16.0599 22.9216L15.7106 23.3128C13.9669 22.9836 11.8298 23.7901 10.2621 25.5427C8.69448 27.2954 8.13057 29.5113 8.652 31.2053L8.3027 31.5965L9.66469 32.8148C11.4771 34.4356 14.6829 33.808 16.825 31.4126C18.9672 29.0173 19.2344 25.7607 17.4219 24.1399Z" fill="#E86124"/>
<path d="M10.8101 31.5322L9.44814 30.3139L9.79744 29.9227C9.34139 28.4366 9.71696 26.5543 10.8705 24.9324C10.6563 25.1244 10.4531 25.3284 10.2619 25.5433C8.69701 27.2965 8.1303 29.5113 8.65118 31.2064L8.30188 31.5976L9.66387 32.816C11.4763 34.4367 14.682 33.8091 16.8242 31.4138C17.0157 31.2005 17.195 30.9766 17.3613 30.7431C15.2566 32.6204 12.4577 33.006 10.8101 31.5322Z" fill="#DC4A26"/>
<path d="M15.4619 30.1936C17.6042 27.7984 17.8718 24.5427 16.0596 22.9219C14.2473 21.301 11.0416 21.9287 8.89929 24.3239C6.757 26.7191 6.48941 29.9747 8.30161 31.5956C10.1138 33.2165 13.3196 32.5888 15.4619 30.1936Z" fill="#F0E92D"/>
<path d="M14.5549 29.3825C16.1052 27.6493 16.2989 25.2933 14.9875 24.1204C13.6762 22.9475 11.3563 23.4018 9.80604 25.1351C8.25575 26.8684 8.06206 29.2243 9.37342 30.3972C10.6848 31.5701 13.0046 31.1158 14.5549 29.3825Z" fill="#EF8521"/>
<path d="M10.6079 29.8466C9.28562 28.664 9.06375 26.6688 9.93727 24.9961C9.89294 25.0419 9.84934 25.0889 9.8065 25.1369C8.25617 26.8695 8.06223 29.2262 9.37392 30.3993C10.2178 31.1544 11.4798 31.2343 12.6853 30.7347C11.9149 30.6717 11.1858 30.36 10.6079 29.8466Z" fill="#E86124"/>
<defs>
<radialGradient id="paint0_radial_1676_6702" cx="0" cy="0" r="1" gradientUnits="userSpaceOnUse" gradientTransform="translate(20.5 20.6066) rotate(90) scale(20.6066 20.5)">
<stop offset="0.53125" stop-color="#F9F9F9"/>
<stop offset="1" stop-color="white" stop-opacity="0"/>
</radialGradient>
</defs>
</svg>
