<svg width="823" height="416" viewBox="0 0 823 416" fill="none" xmlns="http://www.w3.org/2000/svg">
<path d="M137.038 106.18C135.655 106.733 133.994 107.148 132.058 107.425C130.121 107.425 128.461 107.84 127.077 108.67C126.524 110.883 125.97 113.097 125.417 115.311C125.14 117.524 125.279 119.738 125.832 121.951C123.065 128.315 119.606 134.679 115.456 141.043C111.582 147.407 107.709 153.079 103.835 158.06C101.068 168.021 98.4395 177.29 95.9492 185.867C93.7357 194.168 92.6289 204.406 92.6289 216.58C92.0755 217.964 91.5221 219.485 90.9688 221.146C90.4154 222.806 90.1387 224.743 90.1387 226.956C90.1387 228.616 90.5537 230.138 91.3838 231.521C92.4906 232.905 93.0439 234.427 93.0439 236.087C93.5973 238.577 93.1823 241.067 91.7988 243.558C90.6921 246.048 90.1387 248.538 90.1387 251.028C90.1387 252.965 90.5537 254.625 91.3838 256.009C92.2139 257.392 92.3522 259.052 91.7988 260.989C95.3958 264.863 98.9928 267.907 102.59 270.12C106.464 272.334 109.784 275.792 112.551 280.496C113.381 280.496 114.626 281.049 116.286 282.156C118.223 283.263 120.298 284.508 122.512 285.892C124.725 286.998 127.077 288.243 129.567 289.627C132.334 290.734 134.825 291.425 137.038 291.702C140.358 291.979 143.264 291.979 145.754 291.702C148.244 291.149 151.841 290.595 156.545 290.042C168.719 288.659 179.51 284.785 188.918 278.421C198.326 272.057 205.796 265.278 211.33 258.084C211.33 252.55 211.883 247.846 212.99 243.973C214.097 240.099 215.757 236.225 217.971 232.352C219.354 230.138 220.876 228.34 222.536 226.956C224.196 225.573 225.165 223.221 225.441 219.9C225.718 218.24 225.718 216.442 225.441 214.505C225.441 212.291 225.58 210.078 225.856 207.864C226.133 205.651 225.58 203.576 224.196 201.639C222.813 199.425 221.844 197.627 221.291 196.243C220.738 194.03 218.662 191.539 215.065 188.772C211.468 186.006 208.563 183.792 206.35 182.132C204.413 180.748 202.338 179.227 200.124 177.566C197.91 175.906 196.112 174.246 194.729 172.586C193.622 170.926 193.207 169.266 193.483 167.605C193.76 165.669 195.559 164.008 198.879 162.625C204.689 162.902 210.915 163.455 217.556 164.285C224.196 165.115 230.975 165.945 237.893 166.775C245.087 167.329 252.142 167.882 259.06 168.436C265.977 168.989 272.341 168.989 278.151 168.436C282.025 168.159 285.069 167.882 287.282 167.605C289.496 167.052 291.433 166.637 293.093 166.36C294.753 165.807 296.551 165.254 298.488 164.7C300.702 164.147 303.607 163.593 307.204 163.04C309.418 162.763 311.216 162.763 312.6 163.04C314.26 163.317 315.782 163.455 317.165 163.455C319.102 162.902 321.039 162.21 322.976 161.38C324.912 160.273 326.988 159.581 329.201 159.305C331.968 159.028 334.32 159.028 336.257 159.305C338.47 159.581 340.407 159.996 342.067 160.55C344.004 161.103 346.079 161.657 348.293 162.21C350.507 162.763 353.135 163.178 356.179 163.455C361.159 164.008 364.895 164.562 367.385 165.115C370.152 165.669 371.535 167.882 371.535 171.756C371.535 174.246 370.567 176.045 368.63 177.151C366.97 178.258 364.756 179.088 361.989 179.642C359.499 179.918 356.732 180.195 353.688 180.472C350.922 180.472 348.293 180.61 345.803 180.887C343.036 181.44 340.961 182.132 339.577 182.962C338.194 183.515 337.087 184.207 336.257 185.037C335.427 185.867 334.597 186.836 333.767 187.942C333.213 188.772 332.106 189.464 330.446 190.018C328.786 190.571 327.264 191.263 325.881 192.093C324.497 192.646 322.976 193.2 321.315 193.753C317.718 195.136 315.228 197.35 313.845 200.394C312.461 203.437 310.663 206.619 308.449 209.939C306.236 212.43 304.991 214.643 304.714 216.58C304.714 218.24 303.884 220.177 302.224 222.391C299.457 226.541 296.828 231.937 294.338 238.577C291.848 245.218 289.634 251.167 287.697 256.424C284.377 265.555 282.025 275.239 280.642 285.477C279.535 295.438 277.875 305.122 275.661 314.529C274.831 317.573 274.278 320.755 274.001 324.075C274.001 327.672 273.724 331.131 273.171 334.451C272.341 336.665 271.372 338.878 270.266 341.092C269.436 343.582 268.882 345.934 268.605 348.147C268.052 350.638 267.914 352.99 268.19 355.203C268.467 357.693 268.19 360.184 267.36 362.674C265.977 363.227 264.317 363.781 262.38 364.334C260.72 364.887 259.613 365.717 259.06 366.824C257.676 368.761 256.984 371.666 256.984 375.54C256.984 379.69 256.016 382.872 254.079 385.086C252.972 386.469 251.035 387.715 248.269 388.821C245.778 390.205 243.703 391.173 242.043 391.727C239.829 392.28 237.339 392.142 234.572 391.312C232.082 390.481 229.315 390.205 226.271 390.481C222.398 390.758 219.077 392.142 216.311 394.632C213.544 397.122 210.362 399.336 206.765 401.272C204.551 402.656 201.369 403.901 197.219 405.008C193.345 406.115 190.025 407.36 187.258 408.743C185.321 409.85 183.384 410.957 181.447 412.063C179.787 413.17 178.127 414 176.467 414.554C174.807 415.107 173.146 415.245 171.486 414.969C169.826 414.692 168.166 413.585 166.506 411.648C165.122 406.945 164.984 402.933 166.091 399.612C167.474 396.292 169.134 393.248 171.071 390.481C173.285 387.715 175.498 384.948 177.712 382.181C179.925 379.414 181.586 376.093 182.692 372.22C184.076 367.516 184.906 363.089 185.183 358.938C185.736 355.065 186.704 351.191 188.088 347.317C190.301 342.614 193.068 338.325 196.389 334.451C199.709 330.577 202.061 326.012 203.444 320.755C198.741 322.692 193.622 324.905 188.088 327.396C182.831 330.162 176.605 332.099 169.411 333.206C168.304 333.483 167.198 333.483 166.091 333.206C164.984 333.206 163.877 333.206 162.771 333.206C160.28 333.759 157.928 334.313 155.715 334.866C153.501 335.696 151.288 336.388 149.074 336.941C146.031 337.218 143.679 337.08 142.019 336.526C140.635 336.25 138.56 336.111 135.793 336.111C129.706 336.388 124.725 336.941 120.852 337.771C116.978 338.602 112.412 338.463 107.155 337.356C104.112 336.803 100.791 335.696 97.1943 334.036C93.874 332.376 90.5537 330.854 87.2334 329.471C83.9131 328.087 80.4544 326.842 76.8574 325.735C73.2604 324.629 70.0785 323.383 67.3115 322C62.6077 319.786 57.904 317.158 53.2002 314.114C48.7731 311.071 43.7926 308.719 38.2588 307.059C32.7249 299.865 27.3294 291.149 22.0723 280.911C16.8151 270.674 13.4948 260.436 12.1113 250.198C11.8346 247.708 11.8346 245.218 12.1113 242.728C12.388 239.961 12.2497 237.332 11.6963 234.842C11.1429 233.458 10.3128 232.075 9.20605 230.691C8.37598 229.308 7.68424 227.924 7.13086 226.541C6.30078 224.604 5.4707 221.837 4.64062 218.24C4.08724 214.643 3.53385 211.461 2.98047 208.694C1.59701 197.073 1.73535 185.59 3.39551 174.246C5.05566 162.625 7.82259 152.111 11.6963 142.703C11.973 141.873 12.5264 141.181 13.3564 140.628C14.1865 139.798 14.8783 138.829 15.4316 137.723C15.985 136.339 16.2617 135.094 16.2617 133.987C16.2617 132.604 16.5384 131.497 17.0918 130.667C18.752 127.623 20.1354 124.441 21.2422 121.121C22.349 117.801 24.0091 114.48 26.2227 111.16C28.4362 107.01 30.6497 102.721 32.8633 98.2939C35.0768 93.8669 37.7054 90.5465 40.749 88.333C42.6859 87.2262 44.6227 86.2578 46.5596 85.4277C48.7731 84.5977 50.8483 83.7676 52.7852 82.9375C54.722 81.8307 56.3822 80.5856 57.7656 79.2021C59.4258 77.542 60.5326 75.3285 61.0859 72.5615C61.3626 70.9014 61.0859 69.3796 60.2559 67.9961C59.4258 66.3359 59.4258 64.8141 60.2559 63.4307C68.8333 52.9163 79.901 43.9238 93.459 36.4531C94.8424 35.8997 96.2259 35.3464 97.6094 34.793C99.2695 34.2396 100.791 33.6862 102.175 33.1328C104.112 32.026 105.91 30.7809 107.57 29.3975C109.23 28.014 111.306 27.0456 113.796 26.4922C118.5 25.1087 123.342 23.8636 128.322 22.7568C133.579 21.3734 138.975 20.2666 144.509 19.4365C146.446 19.1598 148.382 18.8831 150.319 18.6064C152.256 18.0531 154.055 17.4997 155.715 16.9463C158.482 16.6696 162.355 16.6696 167.336 16.9463C172.593 16.9463 177.989 17.0846 183.522 17.3613C189.333 17.638 194.867 17.9147 200.124 18.1914C205.658 18.1914 209.947 17.9147 212.99 17.3613C214.927 16.8079 216.726 16.1162 218.386 15.2861C220.323 14.4561 222.398 13.9027 224.611 13.626C229.315 13.3493 233.189 13.626 236.232 14.4561C239.553 15.0094 244.118 15.5628 249.929 16.1162C253.526 16.3929 256.984 16.8079 260.305 17.3613C263.902 17.9147 267.637 18.3298 271.511 18.6064C276.215 18.8831 281.057 18.8831 286.037 18.6064C291.018 18.3298 295.86 18.1914 300.563 18.1914C305.267 18.1914 309.833 18.4681 314.26 19.0215C318.964 19.5749 323.114 19.5749 326.711 19.0215C329.201 18.4681 331.553 17.638 333.767 16.5312C335.98 15.4245 338.332 15.0094 340.822 15.2861C343.036 15.8395 345.388 17.0846 347.878 19.0215C350.368 20.9583 351.613 23.0335 351.613 25.2471C351.613 27.7373 349.676 30.5042 345.803 33.5479C342.206 36.5915 339.162 38.6667 336.672 39.7734C328.648 43.0938 319.932 45.7223 310.524 47.6592C301.117 49.3193 290.879 50.5645 279.812 51.3945C276.215 51.6712 272.618 51.8096 269.021 51.8096C265.7 51.8096 262.518 52.0863 259.475 52.6396C257.814 53.193 256.154 53.8848 254.494 54.7148C253.111 55.2682 251.727 55.8216 250.344 56.375C246.47 57.4818 242.32 58.0352 237.893 58.0352C233.742 58.0352 229.592 58.3118 225.441 58.8652C217.417 59.6953 208.563 60.9404 198.879 62.6006C189.471 63.984 182.139 66.751 176.882 70.9014C175.498 72.0081 173.562 73.1149 171.071 74.2217C168.581 75.3285 166.091 76.5736 163.601 77.957C161.11 79.0638 158.62 80.3089 156.13 81.6924C153.916 82.7992 152.256 84.0443 151.149 85.4277C147.829 88.748 144.924 91.6533 142.434 94.1436C140.22 96.6338 138.422 100.646 137.038 106.18ZM613.918 17.3613C620.559 23.1719 627.338 28.7057 634.255 33.9629C641.449 38.9434 647.398 44.8923 652.102 51.8096C653.208 53.193 654.038 54.7148 654.592 56.375C655.422 58.0352 656.39 59.557 657.497 60.9404C659.711 63.984 662.062 67.3044 664.553 70.9014C667.043 74.4984 668.841 78.6488 669.948 83.3525C670.502 86.6729 670.502 90.2699 669.948 94.1436C669.395 97.7406 669.395 101.476 669.948 105.35C670.225 107.01 671.055 108.393 672.438 109.5C674.099 110.33 675.205 111.852 675.759 114.065C676.589 117.939 676.312 121.813 674.929 125.687C673.822 129.56 673.545 133.987 674.099 138.968C674.099 142.011 674.79 144.64 676.174 146.854C677.834 148.79 678.664 151.004 678.664 153.494C678.941 157.368 678.526 161.242 677.419 165.115C676.312 168.712 675.482 172.309 674.929 175.906C672.715 187.251 670.64 196.935 668.703 204.959C667.043 212.983 663.999 221.146 659.572 229.446C657.082 233.32 654.868 237.332 652.932 241.482C651.271 245.633 649.335 249.368 647.121 252.688C641.311 261.543 634.808 269.705 627.614 277.176C620.42 284.37 613.918 291.702 608.107 299.173C597.593 303.877 587.632 308.442 578.225 312.869C568.817 317.296 558.164 321.447 546.267 325.32C543.5 326.15 540.733 327.119 537.966 328.226C535.476 329.332 532.709 330.301 529.665 331.131C526.068 331.961 522.333 332.514 518.459 332.791C514.585 333.068 510.712 333.483 506.838 334.036C504.071 334.59 501.304 335.281 498.537 336.111C495.77 337.218 492.865 337.91 489.821 338.187C486.778 338.74 483.872 338.602 481.105 337.771C478.615 336.941 475.848 336.25 472.805 335.696C470.591 335.143 468.101 335.005 465.334 335.281C462.844 335.835 460.492 335.973 458.278 335.696C456.895 335.42 455.511 334.728 454.128 333.621C452.744 332.791 451.084 331.961 449.147 331.131C447.487 330.301 445.55 329.747 443.337 329.471C441.4 329.194 439.602 328.779 437.941 328.226C435.728 327.396 433.653 326.289 431.716 324.905C429.779 323.799 427.704 322.968 425.49 322.415C423.83 321.862 422.17 321.585 420.51 321.585C418.85 321.585 417.328 321.308 415.944 320.755C414.007 320.201 412.209 319.095 410.549 317.435C409.165 315.498 407.367 313.838 405.153 312.454C402.94 311.071 400.726 309.964 398.513 309.134C396.299 308.304 394.501 307.335 393.117 306.229C389.243 303.462 385.231 299.588 381.081 294.607C377.207 289.627 373.749 284.37 370.705 278.836C368.215 273.855 365.171 268.737 361.574 263.479C358.254 258.222 355.625 252.688 353.688 246.878C353.135 243.558 352.72 239.961 352.443 236.087C352.167 231.937 351.752 227.786 351.198 223.636C350.645 215.612 350.368 207.311 350.368 198.733C350.645 190.156 351.613 180.748 353.273 170.511C353.827 167.467 354.795 164.562 356.179 161.795C357.562 158.751 358.946 155.708 360.329 152.664C361.436 149.62 362.404 146.577 363.234 143.533C364.341 140.49 365.448 137.584 366.555 134.817C367.938 132.327 369.875 129.975 372.365 127.762C374.855 125.548 376.516 122.92 377.346 119.876C378.176 116.832 378.037 114.065 376.931 111.575C376.101 109.085 375.962 106.18 376.516 102.859C377.346 96.2188 380.389 90.4082 385.646 85.4277C391.18 80.1706 396.299 74.7751 401.003 69.2412C407.09 62.6006 412.901 57.0667 418.435 52.6396C423.968 48.2126 430.471 43.2321 437.941 37.6982C439.048 37.1449 440.432 36.5915 442.092 36.0381C444.029 35.208 445.827 34.2396 447.487 33.1328C448.871 32.026 450.254 30.9193 451.638 29.8125C453.021 28.429 454.266 27.4606 455.373 26.9072C457.863 26.3538 460.354 26.3538 462.844 26.9072C465.611 27.1839 468.239 27.0456 470.729 26.4922C472.943 25.9388 475.018 24.832 476.955 23.1719C479.169 21.5117 481.244 19.7132 483.181 17.7764C485.118 15.8395 487.054 13.9027 488.991 11.9658C490.928 10.029 492.865 8.50716 494.802 7.40039C495.632 6.84701 496.6 6.57031 497.707 6.57031C499.09 6.29362 500.336 5.87858 501.442 5.3252C509.19 2.00488 517.352 0.898112 525.93 2.00488C534.784 2.83496 543.638 3.52669 552.492 4.08008C559.133 4.63346 565.773 5.18685 572.414 5.74023C579.331 6.01693 585.695 6.98535 591.506 8.64551C595.38 9.75228 599.115 11.4124 602.712 13.626C606.309 15.5628 610.044 16.8079 613.918 17.3613ZM540.871 274.686C542.808 272.749 544.745 270.258 546.682 267.215C548.618 263.895 550.694 260.713 552.907 257.669C557.334 250.198 561.485 242.589 565.358 234.842C569.232 226.818 573.106 218.794 576.979 210.77C580.576 202.745 583.62 194.306 586.11 185.452C588.877 176.321 591.783 167.19 594.826 158.06C595.933 155.016 597.593 151.696 599.807 148.099C602.297 144.502 603.542 141.458 603.542 138.968C603.819 137.031 603.265 135.232 601.882 133.572C600.775 131.635 600.083 129.975 599.807 128.592C599.807 126.655 599.807 124.995 599.807 123.611C600.083 121.951 600.083 120.291 599.807 118.631C599.807 116.971 599.53 115.449 598.977 114.065C598.423 112.682 597.87 111.299 597.316 109.915C596.763 107.425 596.348 104.796 596.071 102.029C595.795 99.2624 595.656 96.6338 595.656 94.1436C595.656 91.93 595.795 89.8548 596.071 87.918C596.348 85.7044 596.348 83.4909 596.071 81.2773C594.688 74.6367 591.783 68.9645 587.355 64.2607C582.928 59.2803 578.501 54.9915 574.074 51.3945C572.691 50.2878 571.584 49.181 570.754 48.0742C569.924 46.6908 568.955 45.7223 567.849 45.1689C565.912 44.6156 563.698 44.2005 561.208 43.9238C558.994 43.6471 557.058 43.6471 555.397 43.9238C549.31 44.4772 543.776 45.8607 538.796 48.0742C534.092 50.0111 528.697 51.6712 522.609 53.0547C513.755 58.8652 504.209 65.5059 493.972 72.9766C484.011 80.4473 475.848 88.8864 469.484 98.2939C468.654 99.6774 467.963 101.061 467.409 102.444C467.132 103.828 466.579 105.211 465.749 106.595C464.366 108.808 462.844 110.745 461.184 112.405C459.523 113.789 458.002 115.587 456.618 117.801C454.128 121.951 451.638 126.517 449.147 131.497C446.657 136.478 444.997 141.043 444.167 145.193C442.784 150.727 441.953 156.676 441.677 163.04C441.4 169.404 440.847 175.768 440.017 182.132C439.187 189.879 438.218 197.488 437.111 204.959C436.005 212.153 435.728 218.932 436.281 225.296C436.281 226.956 436.558 228.755 437.111 230.691C437.665 232.352 438.08 234.15 438.356 236.087C439.187 243.281 440.017 249.368 440.847 254.349C441.677 259.329 443.89 264.033 447.487 268.46C448.871 270.12 450.808 271.642 453.298 273.025C455.788 274.132 457.863 275.516 459.523 277.176C460.907 278.559 461.875 279.943 462.429 281.326C463.259 282.71 464.366 283.955 465.749 285.062C474.88 292.256 487.884 295.853 504.763 295.853C510.02 292.256 516.107 289.074 523.024 286.307C530.218 283.54 536.167 279.666 540.871 274.686ZM809.401 8.64551C810.785 10.859 811.615 13.4876 811.892 16.5312C812.168 19.2982 812.583 22.0651 813.137 24.832C814.243 28.9824 816.042 32.5794 818.532 35.623C821.022 38.6667 821.853 42.9554 821.022 48.4893C820.469 53.193 818.532 57.8968 815.212 62.6006C812.168 67.3044 810.231 72.2848 809.401 77.542C808.848 81.6924 808.848 85.7044 809.401 89.5781C809.955 93.4518 809.955 97.3255 809.401 101.199C809.125 104.243 807.88 107.425 805.666 110.745C803.452 114.065 801.377 117.524 799.44 121.121C795.843 128.038 792.938 134.817 790.725 141.458C788.788 148.099 786.574 155.431 784.084 163.455C782.701 167.329 781.455 171.341 780.349 175.491C779.242 179.642 778.688 183.377 778.688 186.697C778.688 188.634 778.965 190.433 779.519 192.093C780.072 193.476 780.21 194.86 779.934 196.243C779.657 197.903 778.688 199.702 777.028 201.639C775.368 203.576 773.846 205.651 772.463 207.864C770.526 209.524 768.866 211.323 767.482 213.26C766.376 215.197 765.131 216.857 763.747 218.24C760.427 222.944 757.937 227.371 756.276 231.521C754.893 235.395 752.818 238.854 750.051 241.897C748.944 243.558 747.007 245.356 744.24 247.293C741.473 248.953 739.398 249.783 738.015 249.783C736.908 249.783 735.386 249.368 733.449 248.538C731.512 247.708 729.576 246.74 727.639 245.633C725.702 244.249 723.903 243.004 722.243 241.897C720.86 240.514 720.03 239.407 719.753 238.577C718.093 234.98 718.231 230.968 720.168 226.541C722.105 221.837 723.627 217.41 724.733 213.26C725.287 211.323 725.425 209.248 725.148 207.034C724.872 204.544 725.01 202.607 725.563 201.224C726.117 197.903 727.085 194.998 728.469 192.508C729.852 190.018 730.544 186.836 730.544 182.962C730.267 179.642 729.576 176.736 728.469 174.246C727.362 171.479 726.117 168.297 724.733 164.7C725.563 156.399 727.5 148.375 730.544 140.628C733.864 132.881 736.216 125.133 737.6 117.386C737.876 116.556 737.876 115.726 737.6 114.896C737.6 113.789 737.738 112.82 738.015 111.99C738.568 110.607 739.26 109.223 740.09 107.84C740.92 106.456 741.473 105.073 741.75 103.689C742.027 102.029 741.888 100.369 741.335 98.709C741.058 97.0488 740.92 95.527 740.92 94.1436C741.473 91.3766 742.303 88.748 743.41 86.2578C744.794 83.4909 746.039 80.5856 747.146 77.542C748.252 74.7751 749.082 71.5931 749.636 67.9961C750.466 64.3991 751.434 60.9404 752.541 57.6201C753.648 54.5765 754.755 51.3945 755.861 48.0742C756.968 44.7539 757.798 41.5719 758.352 38.5283C758.905 34.6546 759.32 31.196 759.597 28.1523C759.873 25.1087 761.118 22.0651 763.332 19.0215C766.376 17.3613 769.143 15.2861 771.633 12.7959C774.4 10.029 776.89 7.40039 779.104 4.91016C784.637 4.08008 789.895 4.21842 794.875 5.3252C800.132 6.43197 804.974 7.53874 809.401 8.64551ZM719.753 263.479C724.18 263.203 728.607 263.756 733.034 265.14C737.461 266.523 741.473 268.46 745.07 270.95C748.667 273.44 751.573 276.484 753.786 280.081C756 283.401 757.106 287.275 757.106 291.702C757.106 293.639 756.691 295.991 755.861 298.758C755.308 301.525 754.478 304.292 753.371 307.059C752.264 309.826 751.019 312.454 749.636 314.944C748.529 317.435 747.422 319.233 746.315 320.34C745.485 321.447 743.687 322.83 740.92 324.49C738.43 326.427 736.354 327.534 734.694 327.811C730.821 328.917 726.394 329.332 721.413 329.056C716.709 329.056 712.144 328.364 707.717 326.98C703.29 325.874 699.416 324.214 696.096 322C693.052 319.51 691.115 316.466 690.285 312.869C690.008 311.486 689.87 309.964 689.87 308.304C689.593 306.367 689.732 304.707 690.285 303.323C690.562 302.493 691.115 301.801 691.945 301.248C692.499 300.418 692.914 299.45 693.19 298.343C693.467 296.683 693.329 294.746 692.775 292.532C692.499 290.319 692.637 288.243 693.19 286.307C693.467 285.477 694.021 284.508 694.851 283.401C695.957 282.018 697.064 280.634 698.171 279.251C699.278 277.591 700.384 276.207 701.491 275.101C702.598 273.717 703.566 272.749 704.396 272.195C706.61 270.258 708.962 268.737 711.452 267.63C714.219 266.246 716.986 264.863 719.753 263.479Z" fill="url(#paint0_linear_1675_3577)"/>
<defs>
<linearGradient id="paint0_linear_1675_3577" x1="409" y1="-101" x2="409" y2="208" gradientUnits="userSpaceOnUse">
<stop stop-color="#FF1975"/>
<stop offset="1" stop-color="#A98CCE"/>
</linearGradient>
</defs>
</svg>
