<svg width="22" height="16" viewBox="0 0 22 16" fill="none" xmlns="http://www.w3.org/2000/svg">
<path d="M16.2927 14.088C16.2927 14.088 16.6081 14.5142 17.6124 15.1122C17.6876 15.1564 17.7664 15.202 17.8495 15.2482C18.1648 15.4245 18.5353 15.612 18.9731 15.8064L19.0783 13.3024C19.0783 13.3024 20.4448 13.4006 21.6536 12.9096C21.5143 12.8448 20.9141 12.5429 20.0511 11.9178C19.9738 11.8624 19.8934 11.8034 19.8125 11.7421C19.4309 11.4553 19.0057 11.1102 18.5511 10.7002C17.8694 11.7804 16.2927 14.088 16.2927 14.088Z" fill="url(#paint0_linear_2092_1907)"/>
<path d="M5.36085 13.9405C5.36085 13.9405 5.04551 14.3667 4.04114 14.9647C3.96598 15.0089 3.88714 15.0546 3.8041 15.1007C3.48876 15.277 3.12086 15.4645 2.68043 15.659L2.57531 13.155C2.57531 13.155 1.20882 13.2532 0 12.7622C0.139277 12.6974 0.739482 12.3954 1.60247 11.7704C1.67973 11.7149 1.76015 11.656 1.84108 11.5946C2.22265 11.3079 2.64784 10.9627 3.10246 10.5527C3.78413 11.6329 5.36085 13.9405 5.36085 13.9405Z" fill="url(#paint1_linear_2092_1907)"/>
<path d="M10.9849 0.0458984C15.687 0.046079 19.4985 3.60726 19.4985 8C19.4984 12.3927 15.687 15.9539 10.9849 15.9541C6.2826 15.9541 2.4703 12.3928 2.47021 8C2.47021 3.60715 6.28255 0.0458984 10.9849 0.0458984ZM10.9849 1.96094C7.41459 1.96094 4.52002 4.66469 4.52002 8C4.5201 11.3352 7.41464 14.0391 10.9849 14.0391C14.5549 14.0389 17.4487 11.3351 17.4487 8C17.4487 4.6648 14.555 1.96111 10.9849 1.96094Z" fill="#E36302"/>
<mask id="mask0_2092_1907" style="mask-type:alpha" maskUnits="userSpaceOnUse" x="2" y="0" width="18" height="16">
<path d="M10.9849 0.0458984C15.687 0.046079 19.4985 3.60726 19.4985 8C19.4984 12.3927 15.687 15.9539 10.9849 15.9541C6.2826 15.9541 2.4703 12.3928 2.47021 8C2.47021 3.60715 6.28255 0.0458984 10.9849 0.0458984ZM10.9849 1.96094C7.41459 1.96094 4.52002 4.66469 4.52002 8C4.5201 11.3352 7.41464 14.0391 10.9849 14.0391C14.5549 14.0389 17.4487 11.3351 17.4487 8C17.4487 4.6648 14.555 1.96111 10.9849 1.96094Z" fill="#6C7E92"/>
</mask>
<g mask="url(#mask0_2092_1907)">
<g filter="url(#filter0_f_2092_1907)">
<ellipse cx="2.93258" cy="5.49654" rx="2.93258" ry="5.49654" transform="matrix(0.759084 0.650993 -0.700907 0.713252 9.31787 -3.52686)" fill="#FBEB93"/>
</g>
<g filter="url(#filter1_f_2092_1907)">
<ellipse cx="1.91343" cy="5.20343" rx="1.91343" ry="5.20343" transform="matrix(-0.880143 0.474709 -0.525725 -0.850655 20.5071 5.75635)" fill="#F9C94D"/>
</g>
<g filter="url(#filter2_f_2092_1907)">
<ellipse cx="1.88172" cy="3.8143" rx="1.88172" ry="3.8143" transform="matrix(-0.730744 -0.682652 0.730744 -0.682652 14.3127 17.2988)" fill="#FEDB78"/>
</g>
<g filter="url(#filter3_f_2092_1907)">
<ellipse cx="1.88172" cy="3.8143" rx="1.88172" ry="3.8143" transform="matrix(0.730744 -0.682652 0.730744 0.682652 1.68188 11.4038)" fill="#FBE515"/>
</g>
</g>
<ellipse cx="10.9845" cy="8.00005" rx="6.46455" ry="6.03911" fill="url(#paint2_linear_2092_1907)"/>
<path d="M10.9844 1.51904C14.8159 1.51904 17.9219 4.42113 17.9219 8.00049C17.9216 11.5796 14.8157 14.481 10.9844 14.481C7.15305 14.4809 4.04713 11.5796 4.04688 8.00049C4.04688 4.42115 7.15289 1.51908 10.9844 1.51904ZM10.9844 1.96143C7.41413 1.96146 4.51953 4.6652 4.51953 8.00049C4.51978 11.3356 7.41428 14.0395 10.9844 14.0396C14.5545 14.0396 17.449 11.3356 17.4492 8.00049C17.4492 4.66518 14.5547 1.96143 10.9844 1.96143Z" fill="url(#paint3_linear_2092_1907)"/>
<path d="M12.6132 10.882C12.5248 10.8819 12.4378 10.8615 12.3599 10.8226L11.0312 10.1706C11.0136 10.1619 10.9939 10.1573 10.9739 10.1573C10.954 10.1573 10.9343 10.1619 10.9167 10.1706L9.58801 10.8226C9.51006 10.8615 9.42306 10.8819 9.33468 10.882C9.25545 10.8818 9.17722 10.8654 9.10544 10.8341C9.03366 10.8027 8.97004 10.7571 8.91902 10.7005C8.868 10.6439 8.8308 10.5775 8.81 10.5061C8.78921 10.4347 8.78532 10.3599 8.7986 10.2869L9.05245 8.90528C9.05585 8.88683 9.05438 8.86788 9.04815 8.85008C9.04192 8.83228 9.03113 8.81617 9.01671 8.80316L7.94244 7.82463C7.86987 7.75839 7.81854 7.67453 7.79426 7.58251C7.76998 7.49048 7.77371 7.39395 7.80502 7.30379C7.83633 7.21364 7.89399 7.13345 7.97148 7.07227C8.04897 7.01109 8.14322 6.97136 8.24359 6.95755L9.72886 6.75624C9.74868 6.75345 9.76748 6.74624 9.78368 6.73521C9.79987 6.72419 9.81298 6.70967 9.82189 6.69291L10.4862 5.43549C10.5311 5.3505 10.6006 5.27893 10.6868 5.2289C10.773 5.17886 10.8725 5.15234 10.9739 5.15234C11.0754 5.15234 11.1749 5.17886 11.2611 5.2289C11.3473 5.27893 11.4167 5.3505 11.4617 5.43549L12.126 6.69291C12.1349 6.70967 12.148 6.72419 12.1642 6.73521C12.1804 6.74624 12.1992 6.75345 12.219 6.75624L13.7043 6.95755C13.8047 6.97136 13.8989 7.01109 13.9764 7.07227C14.0539 7.13345 14.1116 7.21364 14.1429 7.30379C14.1742 7.39395 14.1779 7.49048 14.1536 7.58251C14.1294 7.67453 14.078 7.75839 14.0055 7.82463L12.9312 8.80316C12.9168 8.81617 12.906 8.83228 12.8997 8.85008C12.8935 8.86788 12.892 8.88683 12.8954 8.90528L13.1493 10.2869C13.1626 10.3599 13.1587 10.4347 13.1379 10.5061C13.1171 10.5775 13.0799 10.6439 13.0289 10.7005C12.9779 10.7571 12.9142 10.8027 12.8425 10.8341C12.7707 10.8654 12.6924 10.8818 12.6132 10.882Z" fill="white"/>
<path d="M11.2733 5.52262L11.9376 6.78003C11.9617 6.82527 11.9971 6.8644 12.0408 6.89407C12.0846 6.92374 12.1354 6.94307 12.1888 6.9504L13.6741 7.1522C13.7357 7.16057 13.7936 7.18487 13.8412 7.22236C13.8888 7.25986 13.9243 7.30904 13.9435 7.36436C13.9627 7.41968 13.965 7.47892 13.9501 7.5354C13.9352 7.59187 13.9037 7.64332 13.8591 7.68394L12.7843 8.66247C12.7456 8.69778 12.7167 8.74134 12.7001 8.78941C12.6834 8.83748 12.6795 8.88861 12.6887 8.9384L12.942 10.3205C12.9527 10.3779 12.9459 10.4369 12.9225 10.4908C12.8991 10.5447 12.8599 10.5915 12.8095 10.6257C12.7591 10.6599 12.6995 10.6802 12.6373 10.6843C12.5752 10.6884 12.513 10.6762 12.4579 10.649L11.1319 9.99697C11.084 9.97328 11.0306 9.96089 10.9763 9.96089C10.9221 9.96089 10.8687 9.97328 10.8208 9.99697L9.49055 10.649C9.43547 10.6762 9.37333 10.6884 9.31119 10.6843C9.24904 10.6802 9.18937 10.6599 9.13897 10.6257C9.08856 10.5915 9.04942 10.5447 9.02601 10.4908C9.00259 10.4369 8.99583 10.3779 9.0065 10.3205L9.25983 8.9384C9.26901 8.88861 9.2651 8.83748 9.24844 8.78941C9.23177 8.74134 9.20286 8.69778 9.16417 8.66247L8.08937 7.68394C8.0448 7.64332 8.01327 7.59187 7.99836 7.5354C7.98345 7.47892 7.98574 7.41968 8.00499 7.36436C8.02424 7.30904 8.05967 7.25986 8.10727 7.22236C8.15488 7.18487 8.21276 7.16057 8.27438 7.1522L9.75965 6.9504C9.81313 6.94307 9.86393 6.92374 9.90767 6.89407C9.95142 6.8644 9.98683 6.82527 10.0109 6.78003L10.6752 5.52262C10.7027 5.47041 10.7452 5.42644 10.7981 5.39569C10.851 5.36493 10.912 5.34863 10.9742 5.34863C11.0365 5.34863 11.0975 5.36493 11.1504 5.39569C11.2033 5.42644 11.2458 5.47041 11.2733 5.52262Z" fill="url(#paint4_linear_2092_1907)"/>
<path d="M10.9847 2.10645C14.4839 2.10659 17.3031 4.75441 17.3031 8C17.3031 11.2456 14.4839 13.8934 10.9847 13.8936C7.4854 13.8936 4.66541 11.2457 4.66541 8C4.66543 4.75432 7.48542 2.10645 10.9847 2.10645Z" stroke="url(#paint5_linear_2092_1907)" stroke-width="0.291262"/>
<path opacity="0.15" d="M17.6593 3.06545C17.2592 3.51276 16.8952 3.85815 16.4513 4.25971C16.4184 4.29021 16.3855 4.3207 16.3527 4.3512C16.3307 4.37153 16.3143 4.38678 16.2924 4.40712C16.2102 4.47828 16.1279 4.55452 16.0403 4.62569C16.0074 4.6511 15.98 4.67652 15.9471 4.70701C15.9252 4.72226 15.9032 4.74259 15.8868 4.75784C15.8594 4.78326 15.832 4.80359 15.8046 4.82392C12.8889 7.21802 9.18399 8.67684 5.27082 8.94116C5.23245 8.94116 5.19957 8.94624 5.1612 8.94624C5.1338 8.94624 5.1064 8.95132 5.07899 8.95132C5.03515 8.95132 4.99679 8.95641 4.95294 8.95641C4.81044 8.96149 4.66795 8.97165 4.52545 8.97165C4.48161 8.97165 4.43228 8.97674 4.38844 8.97674C4.27882 8.98182 4.16921 8.98182 4.06508 8.98182C3.55538 8.98182 3.04568 8.96657 2.5305 8.92591C2.49214 8.62601 2.47021 8.31595 2.47021 8.00588C2.47021 3.60908 6.31214 0.0458984 11.0474 0.0458984C13.1794 0.0458984 15.0802 0.810248 16.5819 2.00984C16.971 2.3199 17.3305 2.6944 17.6593 3.06545Z" fill="url(#paint6_linear_2092_1907)"/>
<defs>
<filter id="filter0_f_2092_1907" x="-0.195682" y="-5.49598" width="15.7742" height="15.5969" filterUnits="userSpaceOnUse" color-interpolation-filters="sRGB">
<feFlood flood-opacity="0" result="BackgroundImageFix"/>
<feBlend mode="normal" in="SourceGraphic" in2="BackgroundImageFix" result="shape"/>
<feGaussianBlur stdDeviation="1.71845" result="effect1_foregroundBlur_2092_1907"/>
</filter>
<filter id="filter1_f_2092_1907" x="9.43762" y="-5.71814" width="13.2996" height="15.9128" filterUnits="userSpaceOnUse" color-interpolation-filters="sRGB">
<feFlood flood-opacity="0" result="BackgroundImageFix"/>
<feBlend mode="normal" in="SourceGraphic" in2="BackgroundImageFix" result="shape"/>
<feGaussianBlur stdDeviation="1.71845" result="effect1_foregroundBlur_2092_1907"/>
</filter>
<filter id="filter2_f_2092_1907" x="9.17932" y="7.06945" width="13.0912" height="12.6819" filterUnits="userSpaceOnUse" color-interpolation-filters="sRGB">
<feFlood flood-opacity="0" result="BackgroundImageFix"/>
<feBlend mode="normal" in="SourceGraphic" in2="BackgroundImageFix" result="shape"/>
<feGaussianBlur stdDeviation="1.71845" result="effect1_foregroundBlur_2092_1907"/>
</filter>
<filter id="filter3_f_2092_1907" x="-0.70142" y="6.38195" width="13.0912" height="12.6819" filterUnits="userSpaceOnUse" color-interpolation-filters="sRGB">
<feFlood flood-opacity="0" result="BackgroundImageFix"/>
<feBlend mode="normal" in="SourceGraphic" in2="BackgroundImageFix" result="shape"/>
<feGaussianBlur stdDeviation="1.71845" result="effect1_foregroundBlur_2092_1907"/>
</filter>
<linearGradient id="paint0_linear_2092_1907" x1="20.4779" y1="14.4746" x2="17.4342" y2="12.191" gradientUnits="userSpaceOnUse">
<stop stop-color="#FC0106"/>
<stop offset="0.5559" stop-color="#E82626"/>
<stop offset="0.6787" stop-color="#B90004"/>
<stop offset="1" stop-color="#790400"/>
</linearGradient>
<linearGradient id="paint1_linear_2092_1907" x1="1.83951" y1="14.0633" x2="3.84879" y2="12.2609" gradientUnits="userSpaceOnUse">
<stop stop-color="#FC0106"/>
<stop offset="0.493927" stop-color="#E82626"/>
<stop offset="0.716768" stop-color="#B90004"/>
<stop offset="1" stop-color="#790400"/>
</linearGradient>
<linearGradient id="paint2_linear_2092_1907" x1="10.9845" y1="1.96094" x2="10.9845" y2="14.0392" gradientUnits="userSpaceOnUse">
<stop stop-color="#FFCE31"/>
<stop offset="0.5" stop-color="#F7E547"/>
<stop offset="1" stop-color="#FBA400"/>
</linearGradient>
<linearGradient id="paint3_linear_2092_1907" x1="10.9844" y1="1.45102" x2="10.9844" y2="14.4744" gradientUnits="userSpaceOnUse">
<stop stop-color="#FFEE02"/>
<stop offset="0.5" stop-color="#D27003"/>
<stop offset="1" stop-color="#FBA400"/>
</linearGradient>
<linearGradient id="paint4_linear_2092_1907" x1="10.9752" y1="5.4013" x2="10.9752" y2="10.0434" gradientUnits="userSpaceOnUse">
<stop offset="0.0820804" stop-color="#F7E547"/>
<stop offset="0.2263" stop-color="#FEFCAF"/>
<stop offset="0.3883" stop-color="#F8DC20"/>
<stop offset="0.5895" stop-color="#E67A0B"/>
<stop offset="1" stop-color="#F8DC20"/>
</linearGradient>
<linearGradient id="paint5_linear_2092_1907" x1="10.9845" y1="1.96094" x2="10.9845" y2="14.0392" gradientUnits="userSpaceOnUse">
<stop stop-color="#F7E547"/>
<stop offset="1" stop-color="#340354" stop-opacity="0.22"/>
</linearGradient>
<linearGradient id="paint6_linear_2092_1907" x1="6.48365" y1="1.27209" x2="10.8699" y2="7.84402" gradientUnits="userSpaceOnUse">
<stop offset="0.5084" stop-color="white" stop-opacity="0"/>
<stop offset="1" stop-color="white"/>
</linearGradient>
</defs>
</svg>
