<svg width="24" height="24" viewBox="0 0 24 24" fill="none" xmlns="http://www.w3.org/2000/svg">
<path d="M16.2004 3.60039C15.8445 3.60032 15.493 3.67941 15.1714 3.83195C14.8498 3.98448 14.5662 4.20663 14.341 4.48231C14.1159 4.75799 13.9549 5.08029 13.8697 5.42587C13.7845 5.77145 13.7772 6.13165 13.8484 6.48039C13.8678 6.57276 13.865 6.66839 13.8405 6.75952C13.816 6.85065 13.7703 6.9347 13.7071 7.00485C13.644 7.075 13.5652 7.12927 13.4772 7.16325C13.3891 7.19722 13.2943 7.20995 13.2004 7.20039C12.8044 7.20039 12.43 7.29639 12.1012 7.46679C11.9214 7.10563 11.6969 6.76857 11.4328 6.46359C11.7955 6.25903 12.191 6.11895 12.6016 6.04959V6.00039C12.6016 5.52763 12.6947 5.0595 12.8756 4.62273C13.0565 4.18596 13.3217 3.7891 13.656 3.45481C13.9903 3.12052 14.3872 2.85534 14.8239 2.67442C15.2607 2.49351 15.7288 2.40039 16.2016 2.40039C16.6744 2.40039 17.1425 2.49351 17.5793 2.67442C18.016 2.85534 18.4129 3.12052 18.7472 3.45481C19.0815 3.7891 19.3466 4.18596 19.5276 4.62273C19.7085 5.0595 19.8016 5.52763 19.8016 6.00039L19.8004 6.04959C20.2718 6.13147 20.7222 6.3065 21.1252 6.56445C21.5282 6.82241 21.8757 7.15811 22.1475 7.55194C22.4192 7.94577 22.6097 8.38982 22.7079 8.85813C22.806 9.32645 22.8098 9.80962 22.719 10.2794C22.6282 10.7492 22.4447 11.1962 22.1792 11.5943C21.9137 11.9923 21.5715 12.3334 21.1726 12.5977C20.7737 12.8619 20.3261 13.044 19.856 13.1333C19.3859 13.2226 18.9028 13.2172 18.4348 13.1176L18.6988 14.206C18.7736 14.515 18.7774 14.837 18.7096 15.1477C18.6419 15.4583 18.5045 15.7495 18.3079 15.9994C18.1112 16.2492 17.8604 16.4511 17.5743 16.5899C17.2882 16.7286 16.9743 16.8006 16.6564 16.8004H15.742C15.424 16.8003 15.1101 16.728 14.8241 16.589C14.5381 16.4499 14.2875 16.2478 14.091 15.9977C13.8946 15.7476 13.7575 15.4562 13.6901 15.1454C13.6227 14.8346 13.6268 14.5126 13.702 14.2036L14.242 11.9812C14.2606 11.9046 14.2941 11.8324 14.3406 11.7688C14.3871 11.7051 14.4456 11.6513 14.5129 11.6103C14.5802 11.5693 14.655 11.5419 14.7328 11.5298C14.8107 11.5177 14.8902 11.521 14.9668 11.5396C15.0434 11.5582 15.1156 11.5917 15.1792 11.6382C15.2428 11.6847 15.2967 11.7432 15.3377 11.8105C15.3787 11.8778 15.4061 11.9526 15.4182 12.0304C15.4303 12.1083 15.427 12.1878 15.4084 12.2644L14.8684 14.488C14.8363 14.6203 14.8346 14.7582 14.8634 14.8913C14.8923 15.0244 14.951 15.1492 15.0352 15.2563C15.1193 15.3634 15.2266 15.45 15.349 15.5096C15.4714 15.5692 15.6058 15.6002 15.742 15.6004H16.6564C16.7928 15.6006 16.9274 15.5698 17.0502 15.5104C17.1729 15.4509 17.2805 15.3644 17.3649 15.2572C17.4493 15.1501 17.5082 15.0251 17.5372 14.8919C17.5662 14.7586 17.5646 14.6205 17.5324 14.488L16.9924 12.2632C16.9644 12.1467 16.972 12.0245 17.0141 11.9123C17.0562 11.8001 17.1309 11.7031 17.2287 11.6338C17.3264 11.5645 17.4426 11.526 17.5624 11.5233C17.6822 11.5206 17.8001 11.5539 17.9008 11.6188C18.2162 11.8215 18.5747 11.9476 18.9475 11.9868C19.3204 12.026 19.6972 11.9773 20.0479 11.8446C20.3986 11.712 20.7133 11.499 20.9668 11.2228C21.2203 10.9465 21.4055 10.6148 21.5077 10.2541C21.6099 9.89333 21.6262 9.51369 21.5552 9.14555C21.4842 8.77741 21.3279 8.43102 21.099 8.13415C20.87 7.83728 20.5746 7.59819 20.2366 7.43603C19.8986 7.27388 19.5272 7.19317 19.1524 7.20039C19.0624 7.20221 18.9732 7.18377 18.8913 7.14642C18.8094 7.10907 18.7369 7.05377 18.6793 6.98462C18.6217 6.91548 18.5804 6.83426 18.5584 6.74697C18.5364 6.65969 18.5344 6.56858 18.5524 6.48039C18.5844 6.32519 18.6004 6.16479 18.6004 5.99919C18.6004 5.36267 18.3475 4.75222 17.8974 4.30213C17.4474 3.85205 16.8369 3.60039 16.2004 3.60039ZM5.40039 9.59919C5.40039 9.21891 5.49076 8.84407 5.66405 8.50556C5.83733 8.16705 6.08858 7.87457 6.39709 7.65221C6.70559 7.42985 7.06252 7.28399 7.43845 7.22664C7.81439 7.16929 8.19857 7.20209 8.55934 7.32235C8.92011 7.44261 9.24714 7.64687 9.51347 7.91831C9.77981 8.18976 9.97783 8.5206 10.0912 8.88359C10.2046 9.24658 10.2301 9.63131 10.1656 10.0061C10.1012 10.3809 9.94856 10.735 9.72039 11.0392C9.65354 11.1283 9.61282 11.2343 9.60281 11.3453C9.59281 11.4563 9.6139 11.5679 9.66374 11.6675C9.71357 11.7672 9.79017 11.851 9.88495 11.9096C9.97974 11.9682 10.089 11.9992 10.2004 11.9992H10.8004C10.9595 11.9992 11.1121 12.0624 11.2247 12.1749C11.3372 12.2874 11.4004 12.4401 11.4004 12.5992C11.4004 12.7583 11.3372 12.9109 11.2247 13.0235C11.1121 13.136 10.9595 13.1992 10.8004 13.1992H9.47199C9.38716 13.1993 9.30331 13.2173 9.22596 13.2522C9.14862 13.287 9.07955 13.3379 9.0233 13.4014C8.96706 13.4649 8.92492 13.5396 8.89966 13.6206C8.87441 13.7016 8.86661 13.787 8.87679 13.8712C9.23919 16.8352 10.8076 18.5368 11.6848 19.2712C11.8948 19.4464 12.0004 19.6672 12.0004 19.858C12.0005 19.9291 11.9867 19.9996 11.9595 20.0653C11.9324 20.131 11.8925 20.1907 11.8422 20.241C11.7919 20.2913 11.7322 20.3312 11.6665 20.3583C11.6008 20.3855 11.5303 20.3994 11.4592 20.3992H4.14039C3.99717 20.3992 3.85982 20.3423 3.75855 20.241C3.65728 20.1398 3.60039 20.0024 3.60039 19.8592C3.60039 19.6672 3.70599 19.4476 3.91479 19.2724C4.79319 18.538 6.36279 16.8364 6.72399 13.8724C6.73417 13.7882 6.72638 13.7028 6.70112 13.6218C6.67587 13.5408 6.63373 13.4661 6.57748 13.4026C6.52123 13.3391 6.45216 13.2882 6.37482 13.2534C6.29748 13.2185 6.21362 13.2005 6.12879 13.2004H4.80039C4.64126 13.2004 4.48865 13.1372 4.37613 13.0247C4.2636 12.9121 4.20039 12.7595 4.20039 12.6004C4.20039 12.4413 4.2636 12.2886 4.37613 12.1761C4.48865 12.0636 4.64126 12.0004 4.80039 12.0004H5.40039C5.51182 12.0004 5.62104 11.9694 5.71583 11.9108C5.81062 11.8522 5.88722 11.7684 5.93705 11.6687C5.98688 11.5691 6.00797 11.4575 5.99797 11.3465C5.98796 11.2355 5.94725 11.1295 5.88039 11.0404C5.56882 10.625 5.40039 10.1185 5.40039 9.59919ZM7.80039 6.00039C7.22071 6.00023 6.64956 6.14006 6.13552 6.40798C5.62147 6.6759 5.17972 7.064 4.84783 7.53927C4.51594 8.01454 4.30373 8.56292 4.22925 9.1378C4.15476 9.71267 4.22019 10.297 4.41999 10.8412C3.9859 10.9352 3.60191 11.1864 3.34186 11.5465C3.0818 11.9065 2.96405 12.35 3.01125 12.7917C3.05846 13.2333 3.26727 13.6419 3.59755 13.9389C3.92783 14.2359 4.35624 14.4002 4.80039 14.4004H5.42439C4.97799 16.558 3.80079 17.8036 3.14439 18.352C2.72919 18.7 2.40039 19.2352 2.40039 19.8592C2.40039 20.8204 3.18039 21.6004 4.14159 21.6004H11.4604C12.4204 21.6004 13.2004 20.8204 13.2004 19.8592C13.2004 19.2352 12.8716 18.7 12.4564 18.352C11.8 17.8036 10.6228 16.558 10.1764 14.4004H10.8004C11.2445 14.4002 11.673 14.2359 12.0032 13.9389C12.3335 13.6419 12.5423 13.2333 12.5895 12.7917C12.6367 12.35 12.519 11.9065 12.2589 11.5465C11.9989 11.1864 11.6149 10.9352 11.1808 10.8412C11.3806 10.297 11.446 9.71267 11.3715 9.1378C11.297 8.56292 11.0848 8.01454 10.753 7.53927C10.4211 7.064 9.97932 6.6759 9.46527 6.40798C8.95122 6.14006 8.38007 6.00023 7.80039 6.00039Z" fill="white"/>
</svg>
