<svg width="24" height="24" viewBox="0 0 24 24" fill="none" xmlns="http://www.w3.org/2000/svg">
<path d="M16.2001 3.59996C15.8442 3.59989 15.4927 3.67899 15.1711 3.83152C14.8496 3.98405 14.5659 4.2062 14.3408 4.48188C14.1156 4.75756 13.9546 5.07986 13.8694 5.42544C13.7842 5.77102 13.777 6.13123 13.8481 6.47996C13.8675 6.57233 13.8648 6.66797 13.8403 6.7591C13.8157 6.85022 13.77 6.93428 13.7069 7.00443C13.6437 7.07458 13.565 7.12884 13.4769 7.16282C13.3889 7.19679 13.294 7.20952 13.2001 7.19996C12.8041 7.19996 12.4297 7.29596 12.1009 7.46636C11.9212 7.1052 11.6966 6.76815 11.4325 6.46316C11.7953 6.2586 12.1907 6.11852 12.6013 6.04916V5.99996C12.6013 5.5272 12.6945 5.05908 12.8754 4.6223C13.0563 4.18553 13.3215 3.78867 13.6558 3.45438C13.9901 3.12009 14.3869 2.85491 14.8237 2.674C15.2605 2.49308 15.7286 2.39996 16.2013 2.39996C16.6741 2.39996 17.1422 2.49308 17.579 2.674C18.0158 2.85491 18.4126 3.12009 18.7469 3.45438C19.0812 3.78867 19.3464 4.18553 19.5273 4.6223C19.7082 5.05908 19.8013 5.5272 19.8013 5.99996L19.8001 6.04916C20.2716 6.13104 20.7219 6.30607 21.1249 6.56403C21.5279 6.82198 21.8755 7.15769 22.1472 7.55152C22.419 7.94535 22.6095 8.38939 22.7076 8.85771C22.8057 9.32602 22.8095 9.8092 22.7188 10.279C22.628 10.7488 22.4445 11.1958 22.179 11.5938C21.9134 11.9919 21.5712 12.333 21.1723 12.5973C20.7734 12.8615 20.3259 13.0436 19.8558 13.1329C19.3857 13.2221 18.9025 13.2168 18.4345 13.1172L18.6985 14.2056C18.7734 14.5146 18.7771 14.8366 18.7094 15.1472C18.6417 15.4579 18.5043 15.7491 18.3076 15.9989C18.111 16.2488 17.8601 16.4507 17.574 16.5894C17.288 16.7282 16.9741 16.8002 16.6561 16.8H15.7417C15.4237 16.7999 15.1099 16.7276 14.8239 16.5886C14.5379 16.4495 14.2872 16.2473 14.0908 15.9973C13.8943 15.7472 13.7572 15.4558 13.6898 15.145C13.6224 14.8342 13.6265 14.5121 13.7017 14.2032L14.2417 11.9808C14.2603 11.9042 14.2938 11.832 14.3403 11.7684C14.3868 11.7047 14.4454 11.6509 14.5127 11.6099C14.58 11.5688 14.6547 11.5415 14.7326 11.5294C14.8105 11.5172 14.89 11.5206 14.9665 11.5392C15.0431 11.5578 15.1153 11.5913 15.1789 11.6377C15.2426 11.6842 15.2965 11.7428 15.3375 11.8101C15.3785 11.8774 15.4058 11.9521 15.4179 12.03C15.4301 12.1079 15.4267 12.1874 15.4081 12.264L14.8681 14.4876C14.836 14.6199 14.8343 14.7578 14.8632 14.8909C14.8921 15.0239 14.9508 15.1487 15.0349 15.2558C15.119 15.3629 15.2263 15.4495 15.3488 15.5092C15.4712 15.5688 15.6056 15.5998 15.7417 15.6H16.6561C16.7925 15.6002 16.9272 15.5694 17.0499 15.5099C17.1726 15.4505 17.2803 15.3639 17.3646 15.2568C17.449 15.1496 17.5079 15.0247 17.537 14.8915C17.566 14.7582 17.5643 14.6201 17.5321 14.4876L16.9921 12.2628C16.9642 12.1463 16.9717 12.024 17.0139 11.9119C17.056 11.7997 17.1307 11.7027 17.2284 11.6334C17.3262 11.564 17.4424 11.5256 17.5622 11.5229C17.682 11.5202 17.7998 11.5535 17.9005 11.6184C18.2159 11.8211 18.5744 11.9471 18.9473 11.9864C19.3201 12.0256 19.697 11.9769 20.0477 11.8442C20.3983 11.7115 20.713 11.4986 20.9665 11.2223C21.22 10.9461 21.4053 10.6144 21.5075 10.2536C21.6097 9.8929 21.6259 9.51326 21.5549 9.14512C21.4839 8.77698 21.3277 8.4306 21.0987 8.13373C20.8697 7.83686 20.5744 7.59776 20.2364 7.43561C19.8983 7.27345 19.527 7.19275 19.1521 7.19996C19.0622 7.20179 18.9729 7.18334 18.891 7.14599C18.8091 7.10864 18.7367 7.05334 18.6791 6.9842C18.6214 6.91505 18.5801 6.83383 18.5581 6.74654C18.5362 6.65926 18.5341 6.56815 18.5521 6.47996C18.5841 6.32476 18.6001 6.16436 18.6001 5.99876C18.6001 5.36224 18.3473 4.75179 17.8972 4.30171C17.4471 3.85162 16.8367 3.59996 16.2001 3.59996ZM5.40015 9.59876C5.40015 9.21848 5.49051 8.84364 5.6638 8.50513C5.83709 8.16662 6.08834 7.87414 6.39684 7.65178C6.70534 7.42943 7.06227 7.28356 7.43821 7.22621C7.81414 7.16886 8.19832 7.20167 8.55909 7.32192C8.91986 7.44218 9.24689 7.64645 9.51323 7.91789C9.77957 8.18933 9.97759 8.52017 10.091 8.88316C10.2044 9.24615 10.2299 9.63088 10.1654 10.0057C10.1009 10.3804 9.94832 10.7345 9.72015 11.0388C9.65329 11.1279 9.61258 11.2339 9.60257 11.3449C9.59256 11.4559 9.61366 11.5674 9.66349 11.6671C9.71332 11.7668 9.78992 11.8506 9.88471 11.9092C9.97949 11.9677 10.0887 11.9988 10.2001 11.9988H10.8001C10.9593 11.9988 11.1119 12.062 11.2244 12.1745C11.3369 12.287 11.4001 12.4396 11.4001 12.5988C11.4001 12.7579 11.3369 12.9105 11.2244 13.023C11.1119 13.1355 10.9593 13.1988 10.8001 13.1988H9.47175C9.38692 13.1988 9.30306 13.2169 9.22572 13.2517C9.14838 13.2866 9.0793 13.3374 9.02306 13.4009C8.96681 13.4644 8.92467 13.5392 8.89942 13.6201C8.87416 13.7011 8.86637 13.7865 8.87655 13.8708C9.23895 16.8348 10.8073 18.5364 11.6845 19.2708C11.8945 19.446 12.0001 19.6668 12.0001 19.8576C12.0003 19.9287 11.9864 19.9991 11.9593 20.0649C11.9321 20.1306 11.8923 20.1903 11.842 20.2406C11.7917 20.2909 11.732 20.3307 11.6662 20.3579C11.6005 20.385 11.5301 20.3989 11.4589 20.3988H4.14015C3.99693 20.3988 3.85958 20.3419 3.75831 20.2406C3.65704 20.1393 3.60015 20.002 3.60015 19.8588C3.60015 19.6668 3.70575 19.4472 3.91455 19.272C4.79295 18.5376 6.36255 16.836 6.72375 13.872C6.73393 13.7877 6.72613 13.7023 6.70088 13.6213C6.67562 13.5404 6.63348 13.4656 6.57724 13.4021C6.52099 13.3386 6.45192 13.2878 6.37457 13.2529C6.29723 13.2181 6.21338 13.2 6.12855 13.2H4.80015C4.64102 13.2 4.4884 13.1368 4.37588 13.0242C4.26336 12.9117 4.20015 12.7591 4.20015 12.6C4.20015 12.4408 4.26336 12.2882 4.37588 12.1757C4.4884 12.0632 4.64102 12 4.80015 12H5.40015C5.51157 12 5.6208 11.9689 5.71559 11.9104C5.81037 11.8518 5.88697 11.768 5.9368 11.6683C5.98663 11.5686 6.00773 11.4571 5.99772 11.3461C5.98772 11.2351 5.947 11.1291 5.88015 11.04C5.56857 10.6245 5.40015 10.1181 5.40015 9.59876ZM7.80015 5.99996C7.22047 5.9998 6.64932 6.13963 6.13527 6.40755C5.62122 6.67548 5.17947 7.06357 4.84759 7.53884C4.5157 8.01411 4.30349 8.56249 4.229 9.13737C4.15451 9.71224 4.21995 10.2966 4.41975 10.8408C3.98566 10.9348 3.60167 11.186 3.34161 11.5461C3.08156 11.9061 2.96381 12.3496 3.01101 12.7913C3.05821 13.2329 3.26703 13.6415 3.59731 13.9385C3.92758 14.2354 4.35599 14.3998 4.80015 14.4H5.42415C4.97775 16.5576 3.80055 17.8032 3.14415 18.3516C2.72895 18.6996 2.40015 19.2348 2.40015 19.8588C2.40015 20.82 3.18015 21.6 4.14135 21.6H11.4601C12.4201 21.6 13.2001 20.82 13.2001 19.8588C13.2001 19.2348 12.8713 18.6996 12.4561 18.3516C11.7997 17.8032 10.6225 16.5576 10.1761 14.4H10.8001C11.2443 14.3998 11.6727 14.2354 12.003 13.9385C12.3333 13.6415 12.5421 13.2329 12.5893 12.7913C12.6365 12.3496 12.5187 11.9061 12.2587 11.5461C11.9986 11.186 11.6146 10.9348 11.1805 10.8408C11.3803 10.2966 11.4458 9.71224 11.3713 9.13737C11.2968 8.56249 11.0846 8.01411 10.7527 7.53884C10.4208 7.06357 9.97907 6.67548 9.46502 6.40755C8.95097 6.13963 8.37983 5.9998 7.80015 5.99996Z" fill="white" fill-opacity="0.56"/>
</svg>
