<svg width="24" height="24" viewBox="0 0 24 24" fill="none" xmlns="http://www.w3.org/2000/svg">
<path d="M12.0747 14.4001C12.5787 14.4001 12.8307 14.0401 12.9057 13.4596C12.9657 12.6586 13.2027 12.2371 14.1762 11.5696C15.1857 10.8571 15.7497 9.93462 15.7497 8.59062C15.7497 6.60312 14.3697 5.25012 12.3567 5.25012C10.8267 5.25012 9.66867 5.98812 9.20667 7.18512C9.06624 7.51191 8.99573 7.86446 8.99967 8.22012C8.99967 8.80962 9.30417 9.18012 9.81717 9.18012C10.2252 9.18012 10.4997 8.95962 10.6632 8.41512C10.9002 7.52712 11.4507 7.04262 12.2742 7.04262C13.1892 7.04262 13.8192 7.71162 13.8192 8.66862C13.8192 9.51312 13.5072 9.99612 12.5862 10.6561C11.6577 11.3056 11.1972 12.0271 11.1972 13.1161V13.2826C11.1972 13.9246 11.5092 14.4001 12.0747 14.4001Z" fill="white"/>
<path d="M15.4093 3.76939L14.0278 2.35339L15.1003 1.30639L16.0333 2.26189L17.3683 2.24539C17.9461 2.23855 18.5196 2.34733 19.0548 2.56532C19.59 2.78332 20.0762 3.10613 20.4849 3.51478C20.8935 3.92343 21.2163 4.40966 21.4343 4.94488C21.6523 5.48011 21.7611 6.05352 21.7543 6.63139L21.7393 7.96639L22.6933 8.89939C23.1065 9.30315 23.4348 9.78542 23.6589 10.3179C23.8831 10.8503 23.9986 11.4222 23.9986 11.9999C23.9986 12.5776 23.8831 13.1495 23.6589 13.6819C23.4348 14.2144 23.1065 14.6966 22.6933 15.1004L21.7378 16.0334L21.7543 17.3684C21.7611 17.9463 21.6523 18.5197 21.4343 19.0549C21.2163 19.5901 20.8935 20.0764 20.4849 20.485C20.0762 20.8937 19.59 21.2165 19.0548 21.4345C18.5196 21.6525 17.9461 21.7612 17.3683 21.7544L16.0333 21.7394L15.1003 22.6934C14.6965 23.1066 14.2142 23.4349 13.6818 23.6591C13.1494 23.8832 12.5775 23.9987 11.9998 23.9987C11.4221 23.9987 10.8502 23.8832 10.3177 23.6591C9.7853 23.4349 9.30302 23.1066 8.89927 22.6934L7.96627 21.7379L6.63127 21.7544C6.05339 21.7612 5.47999 21.6525 4.94476 21.4345C4.40954 21.2165 3.92331 20.8937 3.51466 20.485C3.10601 20.0764 2.7832 19.5901 2.5652 19.0549C2.34721 18.5197 2.23843 17.9463 2.24527 17.3684L2.26027 16.0334L1.30627 15.1004C0.89308 14.6966 0.56476 14.2144 0.340604 13.6819C0.116448 13.1495 0.000976562 12.5776 0.000976562 11.9999C0.000976562 11.4222 0.116448 10.8503 0.340604 10.3179C0.56476 9.78542 0.89308 9.30315 1.30627 8.89939L2.26177 7.96639L2.24527 6.63139C2.23843 6.05352 2.34721 5.48011 2.5652 4.94488C2.7832 4.40966 3.10601 3.92343 3.51466 3.51478C3.92331 3.10613 4.40954 2.78332 4.94476 2.56532C5.47999 2.34733 6.05339 2.23855 6.63127 2.24539L7.96627 2.26039L8.89927 1.30639C9.30302 0.893202 9.7853 0.564882 10.3177 0.340726C10.8502 0.11657 11.4221 0.00109863 11.9998 0.00109863C12.5775 0.00109863 13.1494 0.11657 13.6818 0.340726C14.2142 0.564882 14.6965 0.893202 15.1003 1.30639L14.0278 2.35339C13.7637 2.08307 13.4483 1.86827 13.1 1.72161C12.7517 1.57496 12.3777 1.49941 11.9998 1.49941C11.6219 1.49941 11.2478 1.57496 10.8995 1.72161C10.5513 1.86827 10.2358 2.08307 9.97177 2.35339L8.59177 3.76939L6.61177 3.74539C6.23404 3.74117 5.85927 3.81248 5.50948 3.95513C5.1597 4.09779 4.84195 4.30891 4.5749 4.57609C4.30786 4.84328 4.0969 5.16113 3.95443 5.511C3.81196 5.86086 3.74085 6.23566 3.74527 6.61339L3.76927 8.59039L2.35327 9.97189C2.08295 10.2359 1.86815 10.5514 1.72149 10.8997C1.57484 11.2479 1.49929 11.622 1.49929 11.9999C1.49929 12.3778 1.57484 12.7519 1.72149 13.1001C1.86815 13.4484 2.08295 13.7638 2.35327 14.0279L3.76927 15.4079L3.74527 17.3879C3.74105 17.7656 3.81236 18.1404 3.95501 18.4902C4.09766 18.84 4.30878 19.1577 4.57597 19.4248C4.84315 19.6918 5.16101 19.9028 5.51087 20.0452C5.86073 20.1877 6.23554 20.2588 6.61327 20.2544L8.59027 20.2304L9.97177 21.6464C10.2358 21.9167 10.5513 22.1315 10.8995 22.2782C11.2478 22.4248 11.6219 22.5004 11.9998 22.5004C12.3777 22.5004 12.7517 22.4248 13.1 22.2782C13.4483 22.1315 13.7637 21.9167 14.0278 21.6464L15.4078 20.2304L17.3878 20.2544C17.7655 20.2586 18.1403 20.1873 18.4901 20.0447C18.8398 19.902 19.1576 19.6909 19.4246 19.4237C19.6917 19.1565 19.9026 18.8386 20.0451 18.4888C20.1876 18.1389 20.2587 17.7641 20.2543 17.3864L20.2303 15.4094L21.6463 14.0279C21.9166 13.7638 22.1314 13.4484 22.278 13.1001C22.4247 12.7519 22.5002 12.3778 22.5002 11.9999C22.5002 11.622 22.4247 11.2479 22.278 10.8997C22.1314 10.5514 21.9166 10.2359 21.6463 9.97189L20.2303 8.59189L20.2543 6.61189C20.2585 6.23416 20.1872 5.85939 20.0445 5.5096C19.9019 5.15982 19.6908 4.84207 19.4236 4.57503C19.1564 4.30798 18.8385 4.09703 18.4887 3.95456C18.1388 3.81208 17.764 3.74097 17.3863 3.74539L15.4093 3.76939Z" fill="white"/>
<path d="M10.5015 16.5C10.5015 16.1022 10.6595 15.7206 10.9408 15.4393C11.2221 15.158 11.6036 15 12.0015 15C12.3993 15 12.7808 15.158 13.0621 15.4393C13.3434 15.7206 13.5015 16.1022 13.5015 16.5C13.5015 16.8978 13.3434 17.2794 13.0621 17.5607C12.7808 17.842 12.3993 18 12.0015 18C11.6036 18 11.2221 17.842 10.9408 17.5607C10.6595 17.2794 10.5015 16.8978 10.5015 16.5Z" fill="white"/>
</svg>
