<svg width="27" height="27" viewBox="0 0 27 27" fill="none" xmlns="http://www.w3.org/2000/svg">
<circle cx="13.5" cy="13.5" r="13.5" fill="#FF1975" fill-opacity="0.25"/>
<g clip-path="url(#clip0_1686_1278)">
<path d="M8.5415 11.0208V10.3125C8.5415 8.99743 9.0639 7.73626 9.99377 6.80639C10.9236 5.87652 12.1848 5.35413 13.4998 5.35413C14.8149 5.35413 16.076 5.87652 17.0059 6.80639C17.9358 7.73626 18.4582 8.99743 18.4582 10.3125C18.458 11.2194 18.0978 12.0893 17.4566 12.7307L15.7467 14.4406C15.4835 14.7037 15.2747 15.0161 15.1322 15.36C14.9898 15.7038 14.9165 16.0723 14.9165 16.4445V16.6875H12.0832V15.8573C12.0832 14.5752 12.5932 13.3448 13.4998 12.4375L14.4157 11.5216C14.5745 11.3628 14.7004 11.1743 14.7864 10.9668C14.8723 10.7594 14.9165 10.537 14.9165 10.3125C14.9165 9.93674 14.7672 9.5764 14.5016 9.31072C14.2359 9.04505 13.8756 8.89579 13.4998 8.89579C13.1241 8.89579 12.7638 9.04505 12.4981 9.31072C12.2324 9.5764 12.0832 9.93674 12.0832 10.3125V11.0208H8.5415ZM13.4998 18.8125C13.8756 18.8125 14.2359 18.9617 14.5016 19.2274C14.7672 19.4931 14.9165 19.8534 14.9165 20.2291C14.9165 20.6049 14.7672 20.9652 14.5016 21.2309C14.2359 21.4965 13.8756 21.6458 13.4998 21.6458C13.1241 21.6458 12.7638 21.4965 12.4981 21.2309C12.2324 20.9652 12.0832 20.6049 12.0832 20.2291C12.0832 19.8534 12.2324 19.4931 12.4981 19.2274C12.7638 18.9617 13.1241 18.8125 13.4998 18.8125Z" stroke="#FF1975"/>
</g>
<defs>
<clipPath id="clip0_1686_1278">
<rect width="17" height="17" fill="white" transform="translate(5 5)"/>
</clipPath>
</defs>
</svg>
