<svg width="24" height="24" viewBox="0 0 24 24" fill="none" xmlns="http://www.w3.org/2000/svg">
<path d="M12 15.0004C13.6569 15.0004 15 13.6572 15 12.0004C15 10.3435 13.6569 9.00037 12 9.00037C10.3431 9.00037 9 10.3435 9 12.0004C9 13.6572 10.3431 15.0004 12 15.0004Z" stroke="white" stroke-width="1.25"/>
<path d="M13.765 2.15249C13.398 2.00049 12.932 2.00049 12 2.00049C11.068 2.00049 10.602 2.00049 10.235 2.15249C9.99214 2.253 9.77151 2.40038 9.58569 2.58621C9.39986 2.77204 9.25248 2.99267 9.15196 3.23549C9.05996 3.45849 9.02296 3.71949 9.00896 4.09849C9.00245 4.37242 8.92657 4.64022 8.7884 4.87684C8.65024 5.11347 8.45432 5.31118 8.21896 5.45149C7.97977 5.58526 7.71055 5.65616 7.43649 5.65756C7.16244 5.65896 6.89251 5.59081 6.65196 5.45949C6.31596 5.28149 6.07296 5.18349 5.83196 5.15149C5.30628 5.08236 4.77466 5.2248 4.35396 5.54749C4.03996 5.79049 3.80596 6.19349 3.33996 7.00049C2.87396 7.80749 2.63996 8.21049 2.58896 8.60549C2.5546 8.86594 2.57188 9.13061 2.63983 9.38438C2.70778 9.63815 2.82505 9.87605 2.98496 10.0845C3.13296 10.2765 3.33996 10.4375 3.66096 10.6395C4.13396 10.9365 4.43796 11.4425 4.43796 12.0005C4.43796 12.5585 4.13396 13.0645 3.66096 13.3605C3.33996 13.5635 3.13196 13.7245 2.98496 13.9165C2.82505 14.1249 2.70778 14.3628 2.63983 14.6166C2.57188 14.8704 2.5546 15.135 2.58896 15.3955C2.64096 15.7895 2.87396 16.1935 3.33896 17.0005C3.80596 17.8075 4.03896 18.2105 4.35396 18.4535C4.5624 18.6134 4.8003 18.7307 5.05407 18.7986C5.30784 18.8666 5.57251 18.8839 5.83296 18.8495C6.07296 18.8175 6.31596 18.7195 6.65196 18.5415C6.89251 18.4102 7.16244 18.342 7.43649 18.3434C7.71055 18.3448 7.97977 18.4157 8.21896 18.5495C8.70196 18.8295 8.98896 19.3445 9.00896 19.9025C9.02296 20.2825 9.05896 20.5425 9.15196 20.7655C9.25248 21.0083 9.39986 21.2289 9.58569 21.4148C9.77151 21.6006 9.99214 21.748 10.235 21.8485C10.602 22.0005 11.068 22.0005 12 22.0005C12.932 22.0005 13.398 22.0005 13.765 21.8485C14.0078 21.748 14.2284 21.6006 14.4142 21.4148C14.6001 21.2289 14.7474 21.0083 14.848 20.7655C14.94 20.5425 14.977 20.2825 14.991 19.9025C15.011 19.3445 15.298 18.8285 15.781 18.5495C16.0202 18.4157 16.2894 18.3448 16.5634 18.3434C16.8375 18.342 17.1074 18.4102 17.348 18.5415C17.684 18.7195 17.927 18.8175 18.167 18.8495C18.4274 18.8839 18.6921 18.8666 18.9459 18.7986C19.1996 18.7307 19.4375 18.6134 19.646 18.4535C19.961 18.2115 20.194 17.8075 20.66 17.0005C21.126 16.1935 21.36 15.7905 21.411 15.3955C21.4453 15.135 21.428 14.8704 21.3601 14.6166C21.2921 14.3628 21.1749 14.1249 21.015 13.9165C20.867 13.7245 20.66 13.5635 20.339 13.3615C20.1049 13.2189 19.9108 13.0192 19.7749 12.7812C19.639 12.5432 19.5658 12.2746 19.562 12.0005C19.562 11.4425 19.866 10.9365 20.339 10.6405C20.66 10.4375 20.868 10.2765 21.015 10.0845C21.1749 9.87605 21.2921 9.63815 21.3601 9.38438C21.428 9.13061 21.4453 8.86594 21.411 8.60549C21.359 8.21149 21.126 7.80749 20.661 7.00049C20.194 6.19349 19.961 5.79049 19.646 5.54749C19.4375 5.38758 19.1996 5.2703 18.9459 5.20235C18.6921 5.13441 18.4274 5.11712 18.167 5.15149C17.927 5.18349 17.684 5.28149 17.347 5.45949C17.1065 5.59063 16.8368 5.65868 16.5629 5.65728C16.2891 5.65589 16.02 5.58508 15.781 5.45149C15.5456 5.31118 15.3497 5.11347 15.2115 4.87684C15.0734 4.64022 14.9975 4.37242 14.991 4.09849C14.977 3.71849 14.941 3.45849 14.848 3.23549C14.7474 2.99267 14.6001 2.77204 14.4142 2.58621C14.2284 2.40038 14.0078 2.253 13.765 2.15249Z" stroke="white" stroke-width="1.25"/>
</svg>
