<svg width="24" height="24" viewBox="0 0 24 24" fill="none" xmlns="http://www.w3.org/2000/svg">
<path d="M12 1.99988C6.486 1.99988 2 6.48588 2 11.9999V16.1429C2 17.1669 2.897 17.9999 4 17.9999H5C5.26522 17.9999 5.51957 17.8945 5.70711 17.707C5.89464 17.5195 6 17.2651 6 16.9999V11.8569C6 11.5917 5.89464 11.3373 5.70711 11.1498C5.51957 10.9622 5.26522 10.8569 5 10.8569H4.092C4.648 6.98688 7.978 3.99988 12 3.99988C16.022 3.99988 19.352 6.98688 19.908 10.8569H19C18.7348 10.8569 18.4804 10.9622 18.2929 11.1498C18.1054 11.3373 18 11.5917 18 11.8569V17.9999C18 19.1029 17.103 19.9999 16 19.9999H14V18.9999H10V21.9999H16C18.206 21.9999 20 20.2059 20 17.9999C21.103 17.9999 22 17.1669 22 16.1429V11.9999C22 6.48588 17.514 1.99988 12 1.99988Z" fill="white" fill-opacity="0.56"/>
</svg>
