<svg width="25" height="25" viewBox="0 0 25 25" fill="none" xmlns="http://www.w3.org/2000/svg">
<circle cx="12.5" cy="12.5" r="12" stroke="white"/>
<path d="M9.64592 9.64592C9.69236 9.59935 9.74754 9.56241 9.80828 9.5372C9.86903 9.512 9.93415 9.49902 9.99992 9.49902C10.0657 9.49902 10.1308 9.512 10.1916 9.5372C10.2523 9.56241 10.3075 9.59935 10.3539 9.64592L12.9999 12.2929L15.6459 9.64592C15.6924 9.59943 15.7476 9.56255 15.8083 9.53739C15.8691 9.51223 15.9342 9.49929 15.9999 9.49929C16.0657 9.49929 16.1308 9.51223 16.1915 9.53739C16.2522 9.56255 16.3074 9.59943 16.3539 9.64592C16.4004 9.6924 16.4373 9.74759 16.4624 9.80833C16.4876 9.86907 16.5005 9.93417 16.5005 9.99992C16.5005 10.0657 16.4876 10.1308 16.4624 10.1915C16.4373 10.2522 16.4004 10.3074 16.3539 10.3539L13.7069 12.9999L16.3539 15.6459C16.4004 15.6924 16.4373 15.7476 16.4624 15.8083C16.4876 15.8691 16.5005 15.9342 16.5005 15.9999C16.5005 16.0657 16.4876 16.1308 16.4624 16.1915C16.4373 16.2522 16.4004 16.3074 16.3539 16.3539C16.3074 16.4004 16.2522 16.4373 16.1915 16.4624C16.1308 16.4876 16.0657 16.5005 15.9999 16.5005C15.9342 16.5005 15.8691 16.4876 15.8083 16.4624C15.7476 16.4373 15.6924 16.4004 15.6459 16.3539L12.9999 13.7069L10.3539 16.3539C10.3074 16.4004 10.2522 16.4373 10.1915 16.4624C10.1308 16.4876 10.0657 16.5005 9.99992 16.5005C9.93417 16.5005 9.86907 16.4876 9.80833 16.4624C9.74759 16.4373 9.6924 16.4004 9.64592 16.3539C9.59943 16.3074 9.56255 16.2522 9.53739 16.1915C9.51223 16.1308 9.49929 16.0657 9.49929 15.9999C9.49929 15.9342 9.51223 15.8691 9.53739 15.8083C9.56255 15.7476 9.59943 15.6924 9.64592 15.6459L12.2929 12.9999L9.64592 10.3539C9.59935 10.3075 9.56241 10.2523 9.5372 10.1916C9.512 10.1308 9.49902 10.0657 9.49902 9.99992C9.49902 9.93415 9.512 9.86903 9.5372 9.80828C9.56241 9.74754 9.59935 9.69236 9.64592 9.64592Z" fill="white"/>
</svg>
